<?xml version="1.0" encoding="UTF-8"?> <svg xmlns="http://www.w3.org/2000/svg" role="img" viewBox="-4.48 -0.23 441.22 431.22"><style>svg {enable-background:new 0 0 432 432}</style><style>.st1{fill:#427af4}.st2{fill:#fff}</style><path fill="none" d="M293.2 127.4c-17.8-14-39.1-23.1-62-25.8l1.5 25.8h60.5zm-164 187.5c6 5.8 12.6 11.1 19.7 15.7l6.5-15.7h-26.2zm70.4-187.5l1.5-25.8c-4.2.5-8.6 1.3-12.8 2.2-18.7 4.2-35.6 12.5-49.6 23.6h60.9zm77.5 187.5l6.6 15.9c7.2-4.7 14-9.9 20-15.9h-26.6zm-85 0l-15.9 28.8c21.2 7.2 44.5 8.8 67.9 3.5 4.2-1 8.3-2.1 12.3-3.4l-16-28.9h-48.3z"></path><path d="M417.9 259c-1.1-.2-2.5-.6-3.5-.8-4.2-.7-7.6-.6-11.5-1-8.5-.8-15.3-1.6-21.6-3.6-2.5-1-4.3-4-5.2-5.2l-4.9-1.4c2.5-18.2 1.8-37.2-2.5-56.2-4.4-19.2-12.2-36.7-22.5-52.2 1.3-1.2 3.6-3.2 4.2-3.8.2-2.1 0-4.4 2.2-6.8 4.8-4.4 10.7-8.1 17.9-12.6 3.4-2 6.6-3.3 10.1-5.8.7-.5 1.8-1.5 2.6-2.1 5.8-4.7 7.1-12.6 3-17.8-4.1-5.2-12.2-5.7-18-1.1-.8.6-1.9 1.5-2.6 2.1-3.3 2.8-5.2 5.5-7.9 8.5-5.9 6-10.9 11.1-16.2 14.7-2.3 1.4-5.7.8-7.3.8l-4.5 3.3c-26.1-27.4-61.7-44.9-100-48.4-.1-1.6-.2-4.5-.3-5.4-1.6-1.5-3.5-2.8-3.9-6-.5-6.5.3-13.4 1.4-21.8.5-3.9 1.5-7.2 1.7-11.4v-3.4c0-7.4-5.4-13.3-12.1-13.3-6.7 0-12.1 6-12.1 13.3v.3c0 1-.1 2.2 0 3.1.1 4.2 1.1 7.5 1.7 11.4 1.1 8.4 1.9 15.3 1.4 21.8-.5 2.4-2.3 4.7-3.9 6.2l-.3 5.1c-7.2.6-14.5 1.7-21.8 3.4-31.3 7.1-58.2 23.2-78.7 45-1.4-1-3.7-2.5-4.3-3.1-2.1.3-4.3 1-7.2-.7-5.4-3.6-10.3-8.7-16.2-14.7-2.8-2.9-4.7-5.6-7.9-8.5-.7-.6-1.9-1.5-2.6-2.1-2.5-2-5.5-3.1-8.4-3.2-3.7-.1-7.3 1.3-9.6 4.2-4.1 5.2-2.9 13.1 3 17.8.1 0 .1.1.2.1.8.6 1.8 1.5 2.5 2 3.4 2.5 6.6 3.8 9.9 5.8 7.2 4.4 13.2 8.1 17.9 12.6 1.8 2 2.2 5.4 2.4 7l3.8 3.5c-20.8 30.9-30.5 69.3-24.8 108.5l-5.1 1.5c-1.4 1.7-3.2 4.4-5.2 5.2-6.2 1.9-13.2 2.6-21.6 3.6-3.9.3-7.4.1-11.5 1-1 .2-2.2.5-3.2.7h-.3c-7.1 1.7-11.6 8.3-10.2 14.7s8.4 10.4 15.6 8.8h.2c.1 0 .1-.1.2-.1 1-.2 2.2-.4 3.1-.7 4.1-1.1 7.1-2.8 10.8-4.1 7.9-2.9 14.6-5.3 21-6.1 2.6-.2 5.5 1.7 6.9 2.4l5.3-1c12.1 37.5 37.4 67.7 69.4 86.8l-2.2 5.3c.7 2 1.7 4.8 1.1 6.8-2.3 6-6.3 12.5-10.9 19.6-2.2 3.3-4.4 5.8-6.5 9.6-.5 1-1.1 2.3-1.6 3.3-3.1 6.7-.8 14.3 5.1 17.1 6 2.9 13.4-.1 16.6-6.8.4-1 1.1-2.2 1.5-3.1 1.7-3.9 2.2-7.3 3.5-11 3.2-8 5-16.4 9.3-21.7 1.2-1.5 3.2-2 5.2-2.5l2.8-5c27.9 10.7 59.3 13.6 90.5 6.6 7.1-1.6 14-3.7 20.6-6.2.7 1.4 2.2 4 2.5 4.7 2 .6 4.3 1.1 6.1 3.7 3.3 5.6 5.5 12.3 8.3 20.2 1.2 3.8 1.8 7.1 3.5 11 .4.8 1.1 2.1 1.5 3.1 3.2 6.7 10.7 9.7 16.6 6.8 5.9-2.9 8.3-10.5 5.1-17.1-.4-1-1.1-2.3-1.6-3.3-2-3.8-4.2-6.3-6.5-9.6-4.5-7.1-8.4-13-10.7-19.2-1-3.2.2-5.1 1-7.1-.4-.5-1.5-3.5-2-4.9 33.3-19.7 57.9-51.1 69.4-87.4 1.6.2 4.2.7 5.2 1 1.8-1.2 3.5-2.8 6.8-2.5 6.5 1 13 3.3 21 6.1 3.7 1.4 6.7 3.1 10.8 4.1.8.2 2.1.4 3.1.6.1 0 .1.1.2.1h.2c7.1 1.6 14.1-2.3 15.6-8.8 1.5-6-3-12.6-10.1-14.3zm-88.7-112.1v49.4H103v-49.4h226.2zm-33.7 83.6c1.1.7 2.5 1.2 4.2 1.2 1.2 0 2.2-.1 3.4-.3 1.1-.2 2-.5 2.8-.8l.8 5.3c-.3.2-.7.3-1.4.5-.5.2-1.2.3-1.9.4s-1.4.2-2.2.3c-.7.1-1.6.1-2.3.1-2 0-3.7-.3-5.2-1s-2.6-1.5-3.7-2.5c-1-1.1-1.7-2.3-2.1-3.7-.4-1.5-.7-3-.7-4.7 0-2 .3-3.8 1-5.3.6-1.5 1.4-2.8 2.3-3.8 1-1.1 2.1-1.8 3.4-2.3 1.3-.5 2.5-.7 3.9-.7 3.2 0 5.6 1 7.4 3 1.8 2 2.8 4.9 2.8 8.8v1.3c0 .4-.1.8-.1 1.2h-14.1c0 1.2.6 2.2 1.7 3zm-19-23.4v6.8h7.5v5.4h-7.5v8c0 1.4.2 2.4.7 3.3.4.8 1.4 1.2 2.8 1.2.6 0 1.4-.1 2.1-.2.7-.1 1.4-.3 1.9-.5l.8 5.1c-.7.3-1.6.6-2.5.8-1 .2-2 .3-3.4.3-1.7 0-3.2-.2-4.2-.7-1.2-.5-2-1.2-2.6-2-.6-.8-1.2-1.9-1.4-3.1-.3-1.2-.4-2.5-.4-4v-19.2l6.2-1.2zm36.1 23.5c1.1.4 2.1.7 3.3 1.1 1.2.2 2.2.3 3.3.3 1.2 0 2-.1 2.4-.3.4-.2.7-.6.7-1.4 0-.5-.3-1-1-1.4-.6-.4-1.6-.8-2.9-1.3-1-.4-1.9-.7-2.6-1.2-.8-.4-1.5-.8-2-1.5s-1-1.3-1.3-2c-.3-.7-.4-1.7-.4-2.9 0-2.1.7-3.8 2.3-5.1 1.6-1.3 3.7-1.9 6.3-1.9 1.4 0 2.6.1 3.9.3 1.3.2 2.2.5 3 .8l-1.1 5.1c-.7-.2-1.5-.5-2.3-.7-.8-.2-1.8-.3-2.9-.3-2 0-3 .5-3 1.7 0 .2 0 .5.1.7.1.2.2.4.5.6.3.2.6.4 1.1.6.4.2 1 .4 1.7.7 1.4.5 2.5 1.1 3.4 1.6.8.5 1.6 1.1 2.1 1.7.5.6.8 1.3 1.1 2 .2.7.3 1.6.3 2.5 0 2.2-.8 3.9-2.4 5.1s-3.9 1.7-7 1.7c-2 0-3.6-.2-4.9-.5-1.3-.3-2.2-.6-2.8-.8l1.1-5.2zm-59.5-.1c1.1.7 2.5 1.2 4.2 1.2 1.2 0 2.2-.1 3.4-.3 1.1-.2 2-.5 2.8-.8l.8 5.3c-.3.2-.7.3-1.4.5-.5.2-1.2.3-1.9.4-.7.1-1.4.2-2.2.3-.7.1-1.6.1-2.3.1-2 0-3.7-.3-5.2-1s-2.6-1.5-3.7-2.5c-1-1.1-1.7-2.3-2.1-3.7-.4-1.5-.7-3-.7-4.7 0-2 .3-3.8 1-5.3.6-1.5 1.4-2.8 2.3-3.8s2.1-1.8 3.4-2.3 2.5-.7 3.9-.7c3.2 0 5.6 1 7.4 3 1.8 2 2.8 4.9 2.8 8.8v1.3c0 .4-.1.8-.1 1.2h-14.1c.1 1.2.7 2.2 1.7 3zm-19.1 6.1v-12.1c0-2.1-.3-3.6-.8-4.4-.5-.8-1.5-1.3-3-1.3-.4 0-1 0-1.4.1-.5 0-1 .1-1.4.1v17.6h-6.2v-22c1.1-.3 2.4-.6 4.1-.8 1.7-.2 3.5-.4 5.3-.4 1.9 0 3.4.2 4.7.7 1.3.5 2.2 1.3 3 2.1.7 1 1.3 2 1.6 3.3s.4 2.6.4 4.2v12.9H234zm-47.8-6.1c1.1.7 2.5 1.2 4.2 1.2 1.2 0 2.2-.1 3.4-.3 1.1-.2 2-.5 2.8-.8l.8 5.3c-.3.2-.7.3-1.4.5-.5.2-1.2.3-1.9.4s-1.4.2-2.2.3c-.7.1-1.6.1-2.3.1-2 0-3.7-.3-5.2-1s-2.6-1.5-3.7-2.5c-1-1.1-1.7-2.3-2.1-3.7-.4-1.5-.7-3-.7-4.7 0-2 .3-3.8 1-5.3.6-1.5 1.4-2.8 2.3-3.8s2.1-1.8 3.4-2.3c1.3-.5 2.5-.7 3.9-.7 3.2 0 5.6 1 7.4 3 1.8 2 2.8 4.9 2.8 8.8v1.3c0 .4-.1.8-.1 1.2h-14.2c.1 1.2.7 2.2 1.8 3zm24.8-11.6c-.5.1-1 .1-1.3.2v17.5h-6.2V215c1.2-.4 2.4-.7 4-1.2 1.5-.3 3.2-.5 5.1-.5.3 0 .7 0 1.3.1.4 0 1 .1 1.4.2.4.1 1 .2 1.4.2.4.1.8.2 1.3.3l-1.1 5.3c-.5-.1-1.3-.3-2-.4-.7-.1-1.6-.2-2.4-.2-.5 0-.9 0-1.5.1zm-89.2 11c.8 1.2 1.6 2.3 2.3 3.5.7 1.2 1.3 2.2 1.8 3.2h-7.2c-.4-.7-1-1.6-1.5-2.5s-1.2-1.8-1.8-2.8c-.6-1-1.3-1.8-2-2.6s-1.4-1.6-2.1-2.1v10.1h-6.2V204l6.2-1.1v19c.6-.7 1.3-1.4 1.9-2.1.6-.7 1.3-1.5 1.9-2.2.6-.7 1.2-1.5 1.7-2.1.5-.6 1.1-1.3 1.4-1.7h7.4c-1.5 1.8-3 3.5-4.3 5.1-1.4 1.6-3 3.3-4.7 5 .8.7 1.7 1.7 2.6 2.8.9.9 1.8 2.1 2.6 3.2zm6.8-3.5v-12.7h6.2v12c0 2.1.3 3.6.8 4.5.5 1 1.5 1.4 3 1.4.4 0 1 0 1.4-.1.5 0 1-.1 1.4-.1v-17.6h6.2v21.9c-1.1.3-2.4.6-4.1.8-1.7.2-3.5.4-5.3.4-1.9 0-3.4-.2-4.7-.7-1.3-.5-2.2-1.3-3-2.2-.7-1-1.3-2-1.6-3.4-.1-1.2-.3-2.6-.3-4.2zm25-22.5l6.2-1.1v11.3c.7-.3 1.4-.5 2.2-.7.7-.2 1.6-.2 2.4-.2 1.6 0 3 .3 4.1.8s2.2 1.4 3.1 2.4c.8 1.1 1.4 2.3 1.8 3.7.4 1.4.6 3.1.6 4.9 0 1.8-.2 3.5-.7 5s-1.3 2.8-2.2 3.8c-1 1.1-2.2 1.8-3.6 2.4-1.5.5-3.1.8-4.9.8-.7 0-1.6 0-2.3-.1l-2.4-.3c-.8-.1-1.6-.2-2.3-.4-.7-.1-1.4-.3-1.9-.5v-31.8h-.1zM103 246.4h226.2v49.4H103v-49.4zm190.2-119h-60.5l-1.5-25.8c22.9 2.7 44.3 11.8 62 25.8zm-105-23.7c4.3-1 8.6-1.7 12.8-2.2l-1.5 25.8h-61.1c14.2-11 31.1-19.3 49.8-23.6zm-39.3 226.8c-7.1-4.5-13.6-9.7-19.7-15.7h26.1l-6.4 15.7zm95.3 16.7c-23.5 5.3-46.8 3.7-67.9-3.5l15.9-28.8h48.4l16 28.9c-4.2 1.3-8.3 2.4-12.4 3.4zm39.4-16.4l-6.6-15.9h26.6c-6 5.9-12.8 11.2-20 15.9z" class="st1"></path><path d="M301.7 221.3c-.1-.5-.4-1-.7-1.4-.3-.4-.7-.7-1.3-1-.5-.2-1.1-.4-1.8-.4s-1.3.1-1.8.3c-.5.2-1 .5-1.3 1-.3.4-.6.8-.7 1.4-.2.5-.3 1.1-.4 1.6h8.3l-.3-1.5zm-110-1.4c-.3-.4-.7-.7-1.3-1-.5-.2-1.1-.4-1.8-.4s-1.3.1-1.8.3c-.5.2-1 .5-1.3 1-.3.4-.6.8-.7 1.4-.2.5-.3 1.1-.4 1.6h8.3c0-.5-.1-1.1-.3-1.6-.3-.6-.4-.9-.7-1.3zm66.9 0c-.3-.4-.7-.7-1.3-1-.5-.2-1.1-.4-1.8-.4s-1.3.1-1.8.3c-.5.2-1 .5-1.3 1-.3.4-.6.8-.7 1.4-.2.5-.3 1.1-.4 1.6h8.3c0-.5-.1-1.1-.3-1.6-.2-.6-.3-.9-.7-1.3zm-98.8 11.5c.3.1.7.1 1.2.1s1 .1 1.6.1c1.7 0 3-.6 3.9-1.8.8-1.2 1.3-2.9 1.3-4.9 0-4.1-1.5-6.2-4.4-6.2-.6 0-1.3.1-1.9.2-.6.2-1.2.4-1.5.6v11.9h-.2z" class="st1"></path><path d="M303.6 179.8c4.5 0 7.5-3.1 7.5-7.5v-.1c0-4.4-3.1-7.5-7.5-7.5h-4.2v15.1h4.2zm-124.7-8c2.6 0 4.2-1.5 4.2-3.6v-.1c0-2.3-1.7-3.6-4.3-3.6h-5.5v7.2h5.6v.1z" class="st2"></path><path d="M103 146.9v49.4h226.2v-49.4H103zm24.3 38.3c-7.4 0-12.9-5.7-12.9-12.9v-.1c0-7.1 5.4-13 13.1-13 4.8 0 7.5 1.6 9.8 3.9l-3.5 4c-1.9-1.8-3.9-2.9-6.5-2.9-4.2 0-7.3 3.5-7.3 7.8v.1c0 4.3 3 7.8 7.3 7.8 2.9 0 4.7-1.2 6.6-3l3.5 3.6c-2.4 2.9-5.3 4.7-10.1 4.7zm34.6-.4h-19v-25.1h18.9v4.9h-13.4v5.1h11.9v4.9h-11.9v5.3H162v5h-.1zm21.1 0l-5.4-8h-4.3v8h-5.5v-25.1h11.4c3.2 0 5.6.8 7.3 2.5 1.4 1.4 2.1 3.4 2.1 5.7v.1c0 4-2.2 6.6-5.4 7.7l6.1 9H183zm30.6-20H206v20h-5.5v-20h-7.6v-5.1h20.7v5.1zm10.9 20H219v-25.1h5.5v25.1zm69.4-25.1h9.7c7.8 0 13.3 5.4 13.3 12.5v.1c0 7.1-5.4 12.6-13.3 12.6h-9.7v-25.2zm-6 0v4.9h-13.4v5.1h11.9v4.9h-11.9v5.3h13.6v4.9h-19v-25.1h18.8zm-26.1 0v25.1h-5.5v-25.1h5.5zm-11.1 5h-13.5v5.3h12v5h-12v9.7h-5.5v-25.1h19v5.1zm41 101.3c-2.9 0-4.9 2.3-4.9 5.1s2 5.1 5 5.1c2.9 0 4.9-2.3 4.9-5.1-.1-2.8-2.1-5.1-5-5.1zm-29.2 6.5l-2.2-5.3-2.2 5.3z" class="st2"></path><path d="M329.2 295.9v-49.4H103v49.4h226.2zm-180-24.8c0 4.5-3.5 8.1-8.7 8.1h-6.3V263h6.3c5.1 0 8.7 3.4 8.7 8.1zm11.3 4.4l-4.5-6.9v10.6h-3.5V263h3.9l4.2 6.9 4.2-6.9h3.9v16.3h-3.6v-10.7l-4.6 6.9zm121.2-9.3h-5v13h-3.6v-13h-4.9V263h13.5v3.3zm18.6 4.9c0 4.7-3.7 8.5-8.7 8.5-5.1 0-8.7-3.7-8.7-8.4s3.7-8.5 8.7-8.5c5.1 0 8.7 3.7 8.7 8.4zm15.5-6.5c1 1 1.4 2.2 1.4 3.7 0 2.6-1.4 4.2-3.5 5.1l4 5.8h-4.2L310 274h-2.8v5.2h-3.6V263h7.4c2 0 3.7.6 4.8 1.6zm-57.2-1.8h3.3l7 16.4h-3.7l-1.5-3.7h-6.9l-1.5 3.7h-3.7l7-16.4zm-22.4.2h7.4c2.1 0 3.7.5 4.8 1.7 1 1 1.4 2.2 1.4 3.7 0 2.6-1.4 4.2-3.5 5.1l4 5.8h-4.2l-3.5-5.2h-2.8v5.2h-3.6V263zm-16.2 0h13.5v3.3h-5v13H225v-13h-5V263zm-8.4 9.7c-3.3-.8-5.4-1.8-5.4-5 0-3 2.3-4.9 5.7-4.9 2.3 0 4.4.7 6 2.1l-1.9 2.8c-1.5-1-2.9-1.6-4.2-1.6-1.4 0-2.1.6-2.1 1.4 0 1.1.7 1.4 3.5 2.1 3.3.8 5.2 2 5.2 4.9 0 3.3-2.4 5.1-6 5.1-2.4 0-5-.8-6.9-2.6l2.1-2.5c1.5 1.2 3 2 4.9 2 1.5 0 2.3-.5 2.3-1.6 0-1-.5-1.5-3.2-2.2zM199 263h3.6v16.3H199V263zm-18.5 0h3.3l7.6 10.1V263h3.5v16.3h-3.1l-7.9-10.4v10.4h-3.4V263zm-4.2 0v16.3h-3.6V263h3.6zm-54.9-.2h3.3l7 16.4H128l-1.5-3.7h-6.9l-1.5 3.7h-3.7l7-16.4z" class="st2"></path><path d="M123 267.2l-2.1 5.3h4.2zm187.7-1h-3.6v4.7h3.6c1.7 0 2.8-1 2.8-2.3.1-1.6-1-2.4-2.8-2.4zm-170.1 0h-2.8v9.8h2.8c3 0 4.9-2 4.9-4.9-.1-2.9-2-4.9-4.9-4.9zm105.7 2.4c0-1.6-1.1-2.3-2.9-2.3h-3.6v4.7h3.6c1.8-.1 2.9-1.1 2.9-2.4z" class="st2"></path><path d="M137.6 180.6l-3.5-3.6c-2 1.8-3.7 3-6.6 3-4.3 0-7.3-3.6-7.3-7.8v-.1c0-4.3 3.1-7.8 7.3-7.8 2.5 0 4.4 1.1 6.5 2.9l3.5-4c-2.3-2.3-5.2-3.9-9.8-3.9-7.7 0-13.1 5.8-13.1 13v.1c0 7.2 5.5 12.9 12.9 12.9 4.6-.1 7.5-1.9 10.1-4.7zm10.8-6h11.7v-5h-11.7v-5.1h13.4v-4.8h-18.9v25.1h19v-5h-13.5zm40.3-6.6c0-2.4-.7-4.4-2.1-5.8-1.7-1.7-4.1-2.5-7.3-2.5h-11.5v25.1h5.5v-8h4.3l5.4 8h6.5l-6.1-9c3.1-1.2 5.3-3.7 5.3-7.8zm-15.4 3.8v-7.2h5.5c2.6 0 4.3 1.3 4.3 3.6v.1c0 2.1-1.6 3.6-4.2 3.6h-5.6v-.1zm19.5-12.1v5.1h7.7v20h5.5v-20h7.6v-5.1zm26.2 0h5.5v25.1H219zm12.7 0v25.1h5.5V175h11.9v-5h-11.9v-5.3h13.5v-5zm24.6 0h5.5v25.1h-5.5zm12.6 25.1h19.2v-5h-13.7v-5.2h11.9v-5h-11.9v-5.1h13.5v-4.8h-19zm34.7 0c7.8 0 13.3-5.5 13.3-12.6v-.1c0-7.1-5.4-12.5-13.3-12.5h-9.7v25.1h9.7v.1zm-4.2-20.1h4.2c4.5 0 7.5 3.1 7.5 7.5v.1c0 4.4-3.1 7.5-7.5 7.5h-4.2v-15.1zM118 279.2l1.5-3.7h6.9l1.5 3.7h3.7l-7-16.4h-3.3l-7 16.4h3.7zm5-12l2.1 5.3h-4.3l2.2-5.3zm17.6-4.2h-6.3v16.3h6.3c5.1 0 8.7-3.6 8.7-8.1-.1-4.8-3.7-8.2-8.7-8.2zm4.8 8.2c0 2.9-2 4.9-4.9 4.9h-2.8v-9.8h2.8c3-.1 4.9 1.9 4.9 4.9zm19.7 8h3.6V263h-3.9l-4.2 6.8-4.4-6.8h-3.8v16.2h3.5v-10.5l4.6 6.8h.1l4.5-6.8zm7.6-16.2h3.6v16.3h-3.6zm11.2 5.9l8 10.3h3.1V263h-3.6v10l-7.7-10h-3.2v16.2h3.4zM199 263h3.6v16.3H199zm13.5 13.3c-1.9 0-3.4-.7-4.9-2l-2.1 2.5c1.9 1.8 4.4 2.6 6.9 2.6 3.5 0 6-1.8 6-5.1 0-2.9-1.9-4-5.2-4.9-2.9-.7-3.5-1.1-3.5-2.1 0-.7.7-1.4 2.1-1.4 1.4 0 2.8.6 4.2 1.6l1.9-2.8c-1.7-1.4-3.7-2.1-6-2.1-3.3 0-5.7 1.9-5.7 4.9 0 3.3 2.1 4.1 5.4 5 2.8.7 3.3 1.2 3.3 2.1-.1 1.2-.9 1.7-2.4 1.7zm12.5 2.9h3.6v-13h5V263H220v3.2h5zm14.8-5.1h2.8l3.5 5.2h4.2l-4-5.8c2.1-.7 3.5-2.4 3.5-5.1 0-1.6-.5-2.9-1.4-3.7-1.1-1.1-2.6-1.7-4.8-1.7h-7.4v16.3h3.6v-5.2zm0-7.9h3.6c1.8 0 2.9.7 2.9 2.3 0 1.4-1 2.3-2.8 2.3h-3.6v-4.7h-.1zm17 9.4h6.9l1.5 3.7h3.7l-7-16.4h-3.3l-7 16.4h3.7l1.5-3.7zm3.5-8.4l2.1 5.3h-4.3l2.2-5.3zm8-1h4.8v13h3.6v-13h5V263h-13.4zm23.5-3.5c-5.1 0-8.7 3.8-8.7 8.5s3.6 8.4 8.7 8.4 8.7-3.8 8.7-8.5c-.2-4.7-3.8-8.4-8.7-8.4zm4.8 8.5c0 2.8-2 5.1-4.9 5.1s-5-2.3-5-5.1 2-5.1 4.9-5.1c3-.1 5 2.2 5 5.1zm6.9-8.2v16.3h3.6v-5.2h2.8l3.5 5.2h4.2l-4-5.8c2.1-.7 3.5-2.4 3.5-5.1 0-1.6-.5-2.9-1.4-3.7-1.1-1.1-2.6-1.7-4.8-1.7h-7.4zm10.1 5.6c0 1.4-1 2.3-2.8 2.3h-3.6v-4.7h3.6c1.7 0 2.8.8 2.8 2.4z" class="st1"></path><path d="M116.7 223.8c1.7-1.7 3.2-3.4 4.7-5 1.4-1.6 2.9-3.3 4.3-5.1h-7.4c-.4.5-.8 1.1-1.4 1.7-.5.6-1.2 1.4-1.7 2.1-.6.7-1.3 1.5-1.9 2.2-.6.7-1.3 1.5-1.9 2.1v-19l-6.2 1.1v32.6h6.2v-10.1c.7.5 1.4 1.3 2.1 2.1.7.8 1.4 1.7 2 2.6.6 1 1.3 1.8 1.8 2.8.5 1 1.1 1.8 1.5 2.5h7.2c-.5-1-1.1-2-1.8-3.2-.7-1.2-1.5-2.3-2.3-3.5-.8-1.2-1.7-2.3-2.6-3.4-1-.8-1.8-1.8-2.6-2.5zm13.9 10.4c.7 1 1.7 1.7 3 2.2 1.3.5 2.9.7 4.7.7 1.8 0 3.6-.1 5.3-.4s3.1-.5 4.1-.8v-22h-6.2v17.6c-.4.1-.8.1-1.4.1-.5 0-1 .1-1.4.1-1.5 0-2.4-.4-3-1.4s-.8-2.4-.8-4.5v-12h-6.2v12.7c0 1.6.1 3 .4 4.3.4 1.3.9 2.4 1.5 3.4zm27.2 2.5l2.4.3c.8.1 1.6.1 2.3.1 1.8 0 3.5-.3 4.9-.8 1.4-.5 2.6-1.4 3.6-2.4s1.7-2.3 2.2-3.8c.5-1.5.7-3.2.7-5s-.2-3.4-.6-4.9-1.1-2.8-1.8-3.7c-.8-1.1-1.8-1.8-3.1-2.4-1.2-.5-2.5-.8-4.1-.8-.8 0-1.7.1-2.4.2-.7.2-1.5.4-2.2.7V203l-6.2 1.1v31.8c.5.2 1.2.3 1.9.5.8.1 1.7.2 2.4.3zm3.6-17.7c.6-.2 1.3-.2 1.9-.2 3 0 4.4 2.1 4.4 6.2 0 2-.4 3.6-1.3 4.9-.8 1.2-2.1 1.8-3.9 1.8-.5 0-1.1 0-1.6-.1-.5 0-.8-.1-1.2-.1v-11.7c.5-.4 1.1-.7 1.7-.8zm37.1 8.3c0-.3.1-.7.1-1.2v-1.3c0-3.8-1-6.8-2.8-8.8-1.8-2-4.3-3-7.4-3-1.4 0-2.6.2-3.9.7-1.3.5-2.4 1.3-3.4 2.3-1 1.1-1.8 2.3-2.3 3.8-.6 1.5-1 3.3-1 5.3 0 1.7.2 3.3.7 4.7.4 1.5 1.2 2.6 2.1 3.7 1 1.1 2.2 1.9 3.7 2.5 1.5.6 3.2 1 5.2 1 .7 0 1.6 0 2.3-.1s1.5-.2 2.2-.3 1.3-.3 1.9-.4c.5-.2 1.1-.3 1.4-.5l-.8-5.3c-.7.3-1.6.6-2.8.8-1.1.2-2.2.3-3.4.3-1.8 0-3.2-.4-4.2-1.2-1.1-.7-1.7-1.8-1.8-3.2l14.2.2zm-14.1-4.5c.1-.5.2-1.1.4-1.6s.4-1 .7-1.4c.3-.4.7-.7 1.3-1 .5-.2 1.1-.3 1.8-.3s1.4.1 1.8.4c.5.2.8.6 1.3 1 .4.3.5.8.7 1.4.2.5.2 1.1.3 1.6h-8.4v-.1zm32.5-3.3l1.1-5.3c-.3-.1-.7-.3-1.3-.3-.5-.1-1-.2-1.4-.2-.5-.1-1-.1-1.4-.2-.5 0-.8-.1-1.3-.1-1.9 0-3.6.2-5.1.5-1.5.3-2.9.7-4 1.2v21.6h6.2v-17.5c.3-.1.7-.2 1.3-.2.5-.1 1.1-.1 1.4-.1.8 0 1.7.1 2.4.2.8 0 1.4.3 2.1.4zm23.4 4.2c0-1.6-.1-3-.4-4.2-.3-1.3-.8-2.3-1.6-3.3-.7-1-1.7-1.7-3-2.1-1.3-.5-2.9-.7-4.7-.7-1.8 0-3.6.1-5.3.4-1.7.3-3.1.5-4.1.8v22h6.2V219c.4-.1.8-.1 1.4-.1s1-.1 1.4-.1c1.5 0 2.4.4 3 1.3.5.8.8 2.3.8 4.4v12.1h6.2l.1-12.9zm25.3 2.4v-1.3c0-3.8-1-6.8-2.8-8.8-1.8-2-4.3-3-7.4-3-1.4 0-2.6.2-3.9.7-1.3.5-2.4 1.3-3.4 2.3s-1.8 2.3-2.3 3.8c-.6 1.5-1 3.3-1 5.3 0 1.7.2 3.3.7 4.7.4 1.5 1.2 2.6 2.1 3.7 1 1.1 2.2 1.9 3.7 2.5s3.2 1 5.2 1c.7 0 1.6 0 2.3-.1s1.5-.2 2.2-.3c.7-.1 1.3-.3 1.9-.4.5-.2 1.1-.3 1.4-.5l-.8-5.3c-.7.3-1.6.6-2.8.8-1.1.2-2.2.3-3.4.3-1.8 0-3.2-.4-4.2-1.2-1.1-.7-1.7-1.8-1.8-3.2h14.2c0-.1.1-.5.1-1zm-14.3-3.3c.1-.5.2-1.1.4-1.6s.4-1 .7-1.4c.3-.4.7-.7 1.3-1 .5-.2 1.1-.3 1.8-.3s1.4.1 1.8.4c.5.2.8.6 1.3 1 .4.3.5.8.7 1.4s.2 1.1.3 1.6h-8.4v-.1zm19 4.5c0 1.5.1 2.9.4 4 .3 1.2.7 2.2 1.4 3.1.6.8 1.6 1.5 2.6 2 1.2.5 2.5.7 4.2.7 1.4 0 2.4-.1 3.4-.3 1-.2 1.8-.5 2.5-.8l-.8-5.1c-.6.2-1.3.4-1.9.5-.6.1-1.4.2-2.1.2-1.4 0-2.3-.4-2.8-1.2-.4-.8-.7-1.9-.7-3.3v-8h7.5v-5.4h-7.5V207l-6.2 1.1v19.2zm37.6 0c0-.3.1-.7.1-1.2v-1.3c0-3.8-1-6.8-2.8-8.8-1.8-2-4.3-3-7.4-3-1.4 0-2.6.2-3.9.7s-2.4 1.3-3.4 2.3c-1 1.1-1.8 2.3-2.3 3.8-.6 1.5-1 3.3-1 5.3 0 1.7.2 3.3.7 4.7.4 1.5 1.2 2.6 2.1 3.7 1 1.1 2.2 1.9 3.7 2.5 1.5.6 3.2 1 5.2 1 .7 0 1.6 0 2.3-.1s1.5-.2 2.2-.3c.7-.1 1.3-.3 1.9-.4.5-.2 1.1-.3 1.4-.5l-.8-5.3c-.7.3-1.6.6-2.8.8-1.1.2-2.2.3-3.4.3-1.8 0-3.2-.4-4.2-1.2-1.1-.7-1.7-1.8-1.8-3.2l14.2.2zm-13.8-6c.2-.5.4-1 .7-1.4s.7-.7 1.3-1c.5-.2 1.1-.3 1.8-.3s1.4.1 1.8.4c.5.2.8.6 1.3 1 .4.3.5.8.7 1.4s.2 1.1.3 1.6h-8.4c.2-.7.3-1.2.5-1.7zm25.1 15.8c3 0 5.3-.5 7-1.7 1.6-1.2 2.4-2.9 2.4-5.1 0-1-.1-1.8-.3-2.5-.2-.7-.5-1.4-1.1-2-.5-.6-1.3-1.2-2.1-1.7s-2-1.1-3.4-1.6c-.6-.2-1.3-.5-1.7-.7-.4-.2-.7-.4-1.1-.6-.3-.2-.4-.4-.5-.6-.1-.2-.1-.4-.1-.7 0-1.2 1-1.7 3-1.7 1.1 0 2 .1 2.9.3.8.2 1.7.4 2.3.7l1.1-5.1c-.7-.3-1.7-.5-3-.8-1.3-.2-2.5-.3-3.9-.3-2.6 0-4.8.6-6.3 1.9-1.6 1.3-2.3 3-2.3 5.1 0 1.1.1 2 .4 2.9.3.7.7 1.5 1.3 2s1.3 1.1 2 1.5c.8.4 1.7.8 2.6 1.2 1.3.5 2.2 1 2.9 1.3.6.4 1 .8 1 1.4 0 .6-.2 1.2-.7 1.4-.5.2-1.3.3-2.4.3-1.1 0-2.2-.1-3.3-.3-1.2-.2-2.2-.6-3.3-1.1l-1.1 5.3c.5.2 1.4.5 2.8.8 1.3.3 2.9.4 4.9.4z" class="st2"></path></svg> 