<?xml version="1.0" encoding="UTF-8"?> <svg xmlns="http://www.w3.org/2000/svg" role="img" viewBox="-5.77 -6.02 443.30 433.80"><style>svg {enable-background:new 0 0 432 423.4}</style><style>.st1{fill:#427af4}.st2{fill:#fff}</style><path fill="none" d="M148.4 326.8l4.5-10.9h-19c4.6 3.9 9.4 7.6 14.5 10.9zM295 123.9c-18.1-14.7-40.2-24.3-63.8-27.2l1.5 27.2H295zm-105.9 192L175.8 340c21.3 7.2 44.8 8.9 68.3 3.5 4.2-1 8.3-2.1 12.3-3.4L243 315.9h-53.9zm11.7-219.3c-4.3.5-8.6 1.2-12.9 2.2-19.6 4.4-36.9 13.2-51.4 25h62.8l1.5-27.2zm83 230.4c5.3-3.3 10.2-7.1 14.8-11.1h-19.4l4.6 11.1z"></path><path d="M418.7 254.9c-1-.2-2.5-.6-3.5-.8-4.2-.8-7.6-.6-11.6-.9-8.5-.9-15.5-1.6-21.7-3.6-2.5-1-4.3-4-5.2-5.3l-4.9-1.4c2.5-18.3 1.9-37.4-2.5-56.5-4.4-19.3-12.2-36.9-22.7-52.4 1.3-1.1 3.6-3.2 4.3-3.9.2-2.2 0-4.4 2.3-6.9 4.8-4.5 10.8-8.2 18-12.7 3.4-2 6.6-3.3 10.1-5.9.8-.6 1.8-1.5 2.7-2.1 5.8-4.6 7.1-12.6 3-17.8-4.2-5.2-12.2-5.7-18.1-1.1-.8.7-1.9 1.5-2.7 2.1-3.2 2.8-5.3 5.6-8 8.5-6 6.1-10.9 11.1-16.3 14.8-2.3 1.4-5.8.9-7.3.8l-4.6 3.3C303.7 85.6 268 68 229.5 64.5c-.1-1.6-.2-4.5-.3-5.4-1.6-1.5-3.5-2.8-4-6.1-.5-6.5.4-13.5 1.4-22 .6-3.9 1.5-7.2 1.7-11.5v-3.4c0-7.4-5.4-13.5-12.1-13.5-6.7 0-12.1 6-12.1 13.5v.3c0 1-.1 2.2 0 3.1.2 4.3 1.1 7.6 1.7 11.5 1 8.4 1.9 15.5 1.3 22-.5 2.5-2.3 4.7-3.9 6.3l-.3 5.1c-7.3.6-14.6 1.7-21.9 3.4-31.4 7.1-58.5 23.3-79.1 45.2-1.3-.9-3.7-2.6-4.4-3.1-2.2.3-4.3 1-7.2-.7-5.4-3.6-10.4-8.7-16.3-14.7-2.7-2.9-4.7-5.7-8-8.5-.7-.6-1.9-1.5-2.7-2.1-2.5-2-5.5-3.1-8.4-3.2-3.9-.1-7.5 1.3-9.8 4.3-4.2 5.2-2.8 13.2 3 17.8.1 0 .1.1.2.1.8.6 1.8 1.5 2.5 2 3.5 2.5 6.6 3.9 10 5.9 7.2 4.5 13.2 8.2 18 12.6 1.9 2 2.2 5.5 2.4 7l3.9 3.5c-20.8 31.3-30.4 69.9-24.7 109.2l-5.1 1.5c-1.3 1.7-3.2 4.4-5.2 5.3-6.2 2-13.2 2.7-21.7 3.6-4 .3-7.4.1-11.6.9-.9.2-2.2.5-3.2.7h-.3c-7.1 1.7-11.7 8.3-10.2 14.7 1.5 6.5 8.4 10.4 15.6 8.8h.2c.1 0 .2-.1.2-.1 1-.2 2.3-.5 3.1-.7 4.1-1.1 7.1-2.7 10.9-4.2 8-2.9 14.6-5.3 21.1-6.2 2.7-.2 5.5 1.7 7 2.5l5.3-.9c5.4 16.8 13.5 32.2 23.7 45.8v.9h.7c12.5 16.4 27.9 30.1 45.4 40.5l-2.2 5.3c.8 2 1.7 4.8 1.1 6.8-2.4 6.1-6.4 12.5-11 19.7-2.2 3.3-4.5 5.9-6.5 9.7-.5.9-1.1 2.3-1.6 3.3-3.1 6.7-.8 14.3 5.1 17.2 6 2.9 13.5-.2 16.7-6.8.5-.9 1.1-2.2 1.5-3.1 1.7-3.9 2.3-7.3 3.5-11.1 3.2-8 5-16.5 9.4-21.7 1.2-1.4 3.2-2 5.2-2.5l2.7-5c28.1 10.8 59.5 13.7 90.9 6.5 7.2-1.6 14.1-3.7 20.8-6.3.8 1.4 2.2 4 2.6 4.7 2.1.7 4.3 1 6.2 3.8 3.3 5.6 5.6 12.3 8.3 20.4 1.2 3.8 1.8 7.2 3.5 11.1.4.9 1 2.2 1.5 3.1 3.2 6.7 10.7 9.8 16.7 6.9 6-2.9 8.3-10.5 5.1-17.2-.5-1-1.1-2.4-1.6-3.3-2-3.8-4.3-6.3-6.5-9.6-4.6-7.2-8.4-13.1-10.7-19.2-1-3.1.2-5.1.9-7.1-.5-.5-1.4-3.5-2-4.9 17.9-10.6 33.3-24.6 45.6-40.8h.2v-.3c10.5-14.1 18.6-29.8 24-46.6 1.6.2 4.3.7 5.2.9 1.8-1.2 3.5-2.8 6.8-2.5 6.5.9 13.1 3.3 21.1 6.2 3.7 1.4 6.7 3.1 10.9 4.2.9.2 2.1.5 3.1.7.1 0 .2.1.2.1h.2c7.2 1.5 14.1-2.4 15.6-8.8 1.6-6.8-3-13.4-10.1-15.1zm-89.8-68.8H103.1v-49.2h225.8v49.2zm-9.6 31.1c-.6-.4-1.5-.8-2.8-1.3-1-.4-1.8-.7-2.6-1.1s-1.5-.9-2-1.4c-.6-.5-1-1.2-1.3-1.9-.3-.7-.5-1.6-.5-2.7 0-2 .8-3.7 2.3-4.9 1.5-1.2 3.6-1.8 6.3-1.8 1.3 0 2.6.1 3.8.4 1.2.2 2.2.5 2.9.8l-1.1 4.8c-.7-.2-1.5-.5-2.3-.7s-1.8-.3-2.8-.3c-1.9 0-2.9.5-2.9 1.6 0 .2 0 .5.1.7s.2.4.5.6c.2.2.6.4 1 .6s1 .4 1.6.7c1.4.5 2.5 1 3.4 1.5.9.5 1.6 1 2.1 1.6.5.6.9 1.2 1.1 1.9.2.7.3 1.5.3 2.4 0 2.2-.8 3.8-2.4 4.9-1.6 1.1-3.9 1.7-6.9 1.7-1.9 0-3.5-.2-4.8-.5s-2.2-.6-2.7-.8l1-5c1 .4 2.1.7 3.2 1 1.1.2 2.2.4 3.3.4 1.1 0 1.9-.1 2.4-.3.5-.2.7-.6.7-1.3 0-.8-.3-1.2-.9-1.6zm-25.6 1.5c1 .7 2.5 1.1 4.2 1.1 1.1 0 2.2-.1 3.3-.3 1.1-.2 2-.5 2.7-.8l.8 5c-.3.2-.8.3-1.3.5s-1.2.3-1.8.4c-.7.1-1.4.2-2.2.3s-1.5.1-2.3.1c-2 0-3.7-.3-5.1-.9-1.5-.6-2.7-1.4-3.6-2.4-1-1-1.7-2.2-2.1-3.6s-.7-2.9-.7-4.5c0-1.9.3-3.6.9-5.1.6-1.5 1.4-2.7 2.3-3.6 1-1 2.1-1.7 3.3-2.2 1.3-.5 2.5-.7 3.9-.7 3.1 0 5.5.9 7.3 2.8s2.7 4.7 2.7 8.4v1.2c0 .4-.1.8-.1 1.1h-14c.2 1.5.7 2.5 1.8 3.2zm-11.3-15.9v5.1H275v7.7c0 1.3.2 2.3.7 3.1s1.4 1.2 2.8 1.2c.7 0 1.3-.1 2.1-.2.7-.1 1.3-.3 1.9-.5l.9 4.8c-.7.3-1.6.6-2.5.8s-2 .3-3.4.3c-1.7 0-3.1-.2-4.2-.7-1.1-.5-2-1.1-2.7-1.9-.7-.8-1.1-1.8-1.4-3-.3-1.2-.4-2.4-.4-3.9v-18.3l6.2-1v6.4h7.4zm-30.5 15.9c1 .7 2.5 1.1 4.2 1.1 1.1 0 2.2-.1 3.3-.3 1.1-.2 2-.5 2.7-.8l.8 5c-.3.2-.8.3-1.3.5s-1.2.3-1.8.4c-.7.1-1.4.2-2.2.3s-1.5.1-2.3.1c-2 0-3.7-.3-5.1-.9-1.5-.6-2.7-1.4-3.6-2.4-1-1-1.7-2.2-2.1-3.6s-.7-2.9-.7-4.5c0-1.9.3-3.6.9-5.1.6-1.5 1.4-2.7 2.3-3.6 1-1 2.1-1.7 3.3-2.2 1.3-.5 2.5-.7 3.9-.7 3.1 0 5.5.9 7.3 2.8s2.7 4.7 2.7 8.4v1.2c0 .4-.1.8-.1 1.1h-14c.2 1.5.8 2.5 1.8 3.2zm-19.6-9.9c-.5-.8-1.5-1.2-2.9-1.2-.4 0-.9 0-1.4.1-.5 0-.9.1-1.3.1v16.8h-6.2v-21.1c1-.3 2.4-.6 4.1-.8s3.4-.4 5.2-.4c1.9 0 3.4.2 4.6.7s2.2 1.2 2.9 2.1 1.2 1.9 1.5 3.2c.3 1.2.5 2.6.5 4.1v12.3H233V213c0-2-.2-3.4-.7-4.2zm-15.2-5.7l-1 5.1c-.6-.1-1.2-.3-1.9-.4-.7-.2-1.5-.2-2.4-.2-.4 0-.8 0-1.4.1s-.9.1-1.2.2v16.7H203V204c1.1-.4 2.4-.8 3.9-1.1 1.5-.3 3.2-.5 5-.5.3 0 .7 0 1.2.1.5 0 .9.1 1.4.2.5.1.9.2 1.4.2.5 0 .9.1 1.2.2zm-31.3 15.6c1.1.7 2.5 1.1 4.2 1.1 1.1 0 2.2-.1 3.3-.3 1.1-.2 2-.5 2.7-.8l.8 5c-.3.2-.8.3-1.3.5-.6.2-1.2.3-1.8.4-.7.1-1.4.2-2.2.3-.8.1-1.5.1-2.3.1-2 0-3.7-.3-5.1-.9-1.5-.6-2.7-1.4-3.6-2.4s-1.7-2.2-2.1-3.6-.7-2.9-.7-4.5c0-1.9.3-3.6.9-5.1.6-1.5 1.4-2.7 2.3-3.6 1-1 2.1-1.7 3.3-2.2 1.3-.5 2.5-.7 3.9-.7 3.1 0 5.5.9 7.3 2.8 1.8 1.9 2.7 4.7 2.7 8.4v1.2c0 .4-.1.8-.1 1.1h-14c.1 1.5.7 2.5 1.8 3.2zM162 202.6c.7-.2 1.5-.2 2.4-.2 1.5 0 2.9.3 4.1.8 1.2.5 2.2 1.3 3 2.3.8 1 1.4 2.2 1.8 3.6.4 1.4.6 3 .6 4.7 0 1.7-.3 3.3-.8 4.7-.5 1.4-1.3 2.6-2.2 3.6-1 1-2.2 1.8-3.6 2.3s-3 .8-4.8.8c-.7 0-1.5 0-2.3-.1l-2.4-.3c-.8-.1-1.5-.2-2.3-.4-.7-.2-1.4-.3-1.9-.5v-30.5l6.2-1v10.9c.7-.3 1.4-.6 2.2-.7zm-26 15.9c.5.9 1.5 1.3 2.9 1.3.4 0 .9 0 1.4-.1.5 0 .9-.1 1.3-.1v-16.8h6.2v21.1c-1.1.3-2.4.6-4.1.8s-3.4.4-5.2.4c-1.9 0-3.4-.2-4.6-.7-1.2-.5-2.2-1.2-2.9-2.1-.7-.9-1.2-2-1.5-3.2-.3-1.2-.5-2.6-.5-4.1v-12.1h6.2v11.4c0 1.8.3 3.3.8 4.2zm-22.3-10c.6-.7 1.3-1.4 1.9-2.1.6-.7 1.2-1.4 1.7-2 .5-.6 1-1.2 1.4-1.6h7.3c-1.5 1.7-2.9 3.3-4.3 4.8s-2.9 3.1-4.6 4.7c.8.7 1.7 1.6 2.6 2.7.9 1 1.7 2.1 2.6 3.2s1.6 2.2 2.3 3.3c.7 1.1 1.3 2.1 1.7 3h-7.1c-.4-.7-.9-1.5-1.5-2.4-.6-.9-1.2-1.7-1.8-2.6-.6-.9-1.3-1.7-2-2.5s-1.4-1.5-2.1-2v9.6h-6.2v-31.2l6.2-1v18.2c.6-.7 1.3-1.4 1.9-2.1zm-10.6 45.7v-19.4h225.8v68.1H103.1v-48.7zM295 123.9h-62.3l-1.5-27.2c23.6 2.8 45.7 12.4 63.8 27.2zm-107.1-25c4.3-1 8.6-1.7 12.9-2.2l-1.5 27.2h-62.8c14.5-11.8 31.9-20.6 51.4-25zm-39.5 227.9c-5.1-3.3-9.9-6.9-14.5-10.9h19l-4.5 10.9zm95.7 16.7c-23.6 5.4-47 3.7-68.3-3.5l13.3-24.1H243l13.4 24.2c-4 1.3-8.1 2.4-12.3 3.4zm39.7-16.5l-4.6-11.1h19.4c-4.6 4-9.6 7.7-14.8 11.1z" class="st1"></path><path d="M289 276.4h-4v5.3h4.1c2 0 3.1-1.1 3.1-2.6v-.1c0-1.7-1.2-2.6-3.2-2.6zm-150.1 0h-3.2v11.2h3.2c3.3 0 5.6-2.3 5.6-5.5v-.1c0-3.3-2.3-5.6-5.6-5.6zm34.1-22.2c.4-.5.6-1.1.6-1.7v-.1c0-1.8-1.3-2.8-3.3-2.8h-3.2v5.7h3.2c1.3 0 2.2-.4 2.7-1.1zm-17.7 0c.4-.5.6-1.1.6-1.7v-.1c0-1.8-1.3-2.8-3.3-2.8h-3.2v5.7h3.2c1.3 0 2.2-.4 2.7-1.1zm76.7 21.9c-3.3 0-5.6 2.6-5.6 5.8v.1c0 3.2 2.3 5.8 5.6 5.8s5.6-2.6 5.6-5.8c0-3.2-2.3-5.9-5.6-5.9zm20.7.3h-3.1v5.7h3.2c2 0 3.2-1.2 3.2-2.8v-.1c0-1.9-1.2-2.8-3.3-2.8z" class="st2"></path><path d="M328.9 254.2v-19.4H103.1v68.1h225.8v-48.7zm-86.1-8.3h15.4v3.8h-5.6v14.8h-4.1v-14.8h-5.6v-3.8zm-45.5 0h4.1v18.5h-4.1v-18.5zm-16.6 0h4.1v14.8h9.2v3.7h-13.3v-18.5zm-53.6 18.6h-4.2l4.4-10.3 3.6-8.4h3.8l3.6 8.4 4.4 10.3h-4.3l-1.7-4.2h-7.8l-1.8 4.2zm21.6 17.5c0 5.2-4 9.3-9.8 9.3h-7.2v-18.5h7.2c5.8-.1 9.8 3.9 9.8 9.2zm.8-17.5h-4.1V246h7.6c4.4 0 7.1 2.6 7.1 6.4v.1c0 .6-.1 1.2-.2 1.8-.8 3.1-3.7 4.7-7.3 4.7h-3.1v5.5zm17 26.7h-14.1v-18.5h14v3.6h-9.9v3.8h8.7v3.6h-8.7v3.9h10.1v3.6zm.6-26.7H163V246h7.6c4.4 0 7.1 2.6 7.1 6.4v.1c0 .6-.1 1.2-.2 1.8-.8 3.1-3.7 4.7-7.3 4.7h-3.1v5.5zm12.5 26.9H176l-7.5-18.7h4.5l4.8 13 4.8-13h4.4l-7.4 18.7zm24.5-.2H190v-18.5h14v3.6h-10v3.8h8.7v3.6H194v3.9h10.1v3.6zm16.9 0h-13.3v-18.5h4.1v14.8h9.2v3.7zm-6.3-26.4c-5.5 0-9.5-4.2-9.5-9.5v-.1c0-.3 0-.7.1-1 .5-4.8 4.3-8.6 9.6-8.6 3.5 0 5.6 1.2 7.3 2.9l-2.6 3c-1.4-1.3-2.9-2.1-4.7-2.1-2.8 0-4.9 2.1-5.3 4.8 0 .3-.1.6-.1 1v.1c0 3.2 2.2 5.8 5.4 5.8 2.1 0 3.4-.8 4.9-2.2l2.6 2.6c-2 2-4.1 3.3-7.7 3.3zm27.2 17.2c0 5.3-4.2 9.6-9.9 9.6s-9.8-4.3-9.8-9.5v-.1c0-5.3 4.2-9.6 9.9-9.6s9.8 4.2 9.8 9.6zm-2.6-17.5l-1.7-4.2h-7.8l-1.7 4.2H224l4.4-10.3 3.6-8.4h3.8l3.6 8.4 4.4 10.3h-4.5zm20.9 14.6c0 4.3-3.3 6.5-7.5 6.5h-3.1v5.6h-4.1v-18.5h7.6c4.4 0 7.1 2.6 7.1 6.4zm1.2-24.9V246h4.1v18.5h-4.1v-10.3zm15.9 37h-14.1v-18.5h14v3.6h-9.9v3.8h8.7v3.6h-8.7v3.9h10.1v3.6zm-8-35.9c0-.4 0-.7.1-1.1.5-4.8 4.5-8.6 9.8-8.6 5.4 0 9.3 3.7 9.8 8.6v1.1c0 5.3-4.2 9.6-9.9 9.6-5.7-.1-9.8-4.4-9.8-9.6zm22.9 35.9l-4-5.9H285v5.9h-4.1v-18.5h8.5c2.4 0 4.2.7 5.4 1.9 1 1 1.6 2.5 1.6 4.2v.1c0 3-1.6 4.9-4 5.7l4.5 6.6h-4.7zm16.9-26.7h-3.5l-7.8-10.3-1.1-1.5v11.8h-4V246h3.8l6.3 8.2 2.4 3.2V246h4v18.5z" class="st2"></path><path d="M132.7 250.7l-1.5 3.5-1 2.5h4.9l-1-2.5zm146.4-1.3c-2.9 0-5.1 2.1-5.5 4.8 0 .3-.1.6-.1 1v.1c0 3.2 2.3 5.8 5.6 5.8s5.6-2.6 5.6-5.8v-.1c0-.3 0-.7-.1-1-.4-2.7-2.6-4.8-5.5-4.8zm-45.4 1.3l-1.4 3.5-1 2.5h4.9l-1-2.5zm-49.1-91.5c0-2.5-1.7-3.7-4.4-3.7h-5.6v7.3h5.7c2.7 0 4.3-1.5 4.3-3.6zm125.2 4c0-4.6-3.1-7.8-7.7-7.8h-4.4v15.4h4.4c4.6.1 7.7-3 7.7-7.6z" class="st2"></path><path d="M103.1 186.1h225.8v-49.2H103.1v49.2zm189-35.7h10c8 0 13.6 5.5 13.6 12.7v.1c0 7.2-5.6 12.8-13.6 12.8h-10v-25.6zm-24.5 0h19.3v5h-13.7v5.2h12.1v5h-12.1v5.4h13.9v5h-19.5v-25.6zm-12 0h5.6V176h-5.6v-25.6zm-24.3 0h19.5v5.1h-13.9v5.4h12.2v5.1h-12.2v9.9h-5.6v-25.5zm-12 0h5.6V176h-5.6v-25.6zm-25.8 0h21.2v5.2h-7.8V176h-5.6v-20.4h-7.8v-5.2zm-24.6 0h11.7c3.3 0 5.8.9 7.5 2.6 1.4 1.4 2.2 3.4 2.2 5.8v.1c0 4.1-2.2 6.7-5.5 7.9l6.3 9.1h-6.6l-5.5-8.2h-4.5v8.2h-5.6v-25.5zm-24.5 0h19.3v5H150v5.2h12.1v5H150v5.4h13.9v5h-19.5v-25.6zm-28.1 12.8c0-7.3 5.5-13.2 13.3-13.2 4.8 0 7.7 1.6 10.1 3.9l-3.6 4.1c-2-1.8-4-2.9-6.5-2.9-4.3 0-7.4 3.6-7.4 8v.1c0 4.4 3 8 7.4 8 2.9 0 4.7-1.2 6.7-3l3.6 3.6c-2.6 2.8-5.6 4.6-10.5 4.6-7.5 0-13.1-5.8-13.1-13.2z" class="st2"></path><path d="M129.4 176.4c4.9 0 7.9-1.8 10.5-4.6l-3.6-3.6c-2 1.8-3.8 3-6.7 3-4.4 0-7.4-3.7-7.4-8v-.1c0-4.4 3.1-8 7.4-8 2.6 0 4.6 1.1 6.5 2.9l3.6-4.1c-2.4-2.3-5.3-3.9-10.1-3.9-7.9 0-13.3 6-13.3 13.2v.1c0 7.3 5.6 13.1 13.1 13.1zm34.5-5.5H150v-5.3h12.1v-5H150v-5.2h13.7v-5h-19.3V176h19.5zm10.7-3.1h4.5l5.5 8.2h6.6l-6.3-9.1c3.3-1.2 5.5-3.8 5.5-7.9v-.1c0-2.4-.8-4.4-2.2-5.8-1.7-1.7-4.2-2.6-7.5-2.6H169V176h5.6v-8.2zm0-12.4h5.6c2.7 0 4.4 1.2 4.4 3.7v.1c0 2.2-1.6 3.6-4.3 3.6h-5.7v-7.4zm26.7 20.6h5.6v-20.4h7.8v-5.2h-21.2v5.2h7.8zm18-25.6h5.6V176h-5.6zm17.6 15.6h12.3v-5.1h-12.3v-5.4h13.9v-5.1h-19.5V176h5.6zm18.7-15.6h5.6V176h-5.6zm31.5 20.5h-13.9v-5.3h12v-5h-12v-5.2h13.7v-5h-19.3V176h19.5zm28.6-7.7c0-7.3-5.6-12.8-13.6-12.8h-10V176h10c8 0 13.6-5.6 13.6-12.8zm-18-7.8h4.4c4.6 0 7.7 3.2 7.7 7.7v.1c0 4.5-3.1 7.6-7.7 7.6h-4.4v-15.4zm1.4 53.2c-.3-.4-.7-.7-1.2-1-.5-.2-1.1-.4-1.8-.4s-1.3.1-1.8.4c-.5.2-.9.5-1.2.9-.3.4-.6.8-.8 1.3-.2.5-.3 1-.4 1.6h8.2c0-.5-.1-1-.3-1.5-.1-.5-.4-.9-.7-1.3zm-107.9 0c-.3-.4-.7-.7-1.2-1-.5-.2-1.1-.4-1.8-.4s-1.3.1-1.8.4c-.5.2-.9.5-1.2.9-.3.4-.6.8-.8 1.3-.2.5-.3 1-.4 1.6h8.2c0-.5-.1-1-.3-1.5-.2-.5-.4-.9-.7-1.3zm66.1 0c-.3-.4-.7-.7-1.2-1-.5-.2-1.1-.4-1.8-.4s-1.3.1-1.8.4c-.5.2-.9.5-1.2.9-.3.4-.6.8-.8 1.3-.2.5-.3 1-.4 1.6h8.2c0-.5-.1-1-.3-1.5-.1-.5-.4-.9-.7-1.3zm-97.5 11c.3.1.7.1 1.2.1s1 .1 1.5.1c1.7 0 3-.6 3.8-1.7.9-1.2 1.3-2.7 1.3-4.6 0-4-1.5-6-4.4-6-.6 0-1.3.1-1.9.2-.6.2-1.1.4-1.5.6v11.3z" class="st1"></path><path d="M105.6 193.4v31.2h6.2V215c.7.6 1.4 1.2 2.1 2 .7.8 1.4 1.6 2 2.5.6.9 1.2 1.7 1.8 2.6.6.9 1.1 1.7 1.5 2.4h7.1c-.5-.9-1.1-1.9-1.7-3-.7-1.1-1.5-2.2-2.3-3.3s-1.7-2.2-2.6-3.2c-.9-1-1.7-1.9-2.6-2.7 1.7-1.6 3.2-3.2 4.6-4.7 1.4-1.5 2.8-3.1 4.3-4.8h-7.3c-.4.5-.8 1-1.4 1.6-.5.6-1.1 1.3-1.7 2-.6.7-1.2 1.4-1.9 2.1-.6.7-1.3 1.4-1.9 2.1v-18.2l-6.2 1zm23.4 9.4v12.1c0 1.5.2 2.9.5 4.1.3 1.2.8 2.3 1.5 3.2.7.9 1.7 1.6 2.9 2.1s2.8.7 4.6.7c1.8 0 3.6-.1 5.2-.4s3-.5 4.1-.8v-21.1h-6.2v16.8c-.4.1-.8.1-1.3.1s-1 .1-1.4.1c-1.4 0-2.4-.4-2.9-1.3s-.8-2.3-.8-4.3v-11.4H129zm24.7-9.4v30.5c.6.2 1.2.3 1.9.5s1.5.3 2.3.4l2.4.3c.8.1 1.6.1 2.3.1 1.8 0 3.4-.3 4.8-.8s2.6-1.3 3.6-2.3c1-1 1.7-2.2 2.2-3.6.5-1.4.8-3 .8-4.7 0-1.7-.2-3.3-.6-4.7-.4-1.4-1-2.6-1.8-3.6s-1.8-1.8-3-2.3c-1.2-.5-2.6-.8-4.1-.8-.9 0-1.7.1-2.4.2-.7.2-1.5.4-2.2.7v-10.9l-6.2 1zm7.6 14.4c.6-.2 1.3-.2 1.9-.2 2.9 0 4.4 2 4.4 6 0 1.9-.4 3.4-1.3 4.6-.9 1.2-2.1 1.7-3.8 1.7-.6 0-1.1 0-1.5-.1-.5 0-.9-.1-1.2-.1v-11.2c.4-.4.9-.6 1.5-.7zm36.8 6.8v-1.2c0-3.7-.9-6.5-2.7-8.4-1.8-1.9-4.2-2.8-7.3-2.8-1.3 0-2.6.2-3.9.7-1.3.5-2.4 1.2-3.3 2.2-1 1-1.7 2.2-2.3 3.6-.6 1.5-.9 3.1-.9 5.1 0 1.6.2 3.1.7 4.5s1.2 2.6 2.1 3.6 2.2 1.8 3.6 2.4c1.5.6 3.2.9 5.1.9.8 0 1.5 0 2.3-.1.8-.1 1.5-.2 2.2-.3.7-.1 1.3-.3 1.8-.4.6-.2 1-.3 1.3-.5l-.8-5c-.7.3-1.6.6-2.7.8-1.1.2-2.2.3-3.3.3-1.8 0-3.2-.4-4.2-1.1-1.1-.7-1.6-1.8-1.8-3h14c0-.5.1-.9.1-1.3zm-14.1-3.1c.1-.5.2-1 .4-1.6.2-.5.4-1 .8-1.3.3-.4.7-.7 1.2-.9.5-.2 1.1-.4 1.8-.4s1.3.1 1.8.4c.5.2.9.6 1.2 1 .3.4.6.8.7 1.3.2.5.2 1 .3 1.5H184zm29.1-9.1c-.5 0-.9-.1-1.2-.1-1.9 0-3.5.2-5 .5s-2.8.7-3.9 1.1v20.6h6.2v-16.7c.3-.1.7-.2 1.2-.2s1-.1 1.4-.1c.9 0 1.7.1 2.4.2.7.2 1.4.3 1.9.4l1-5.1c-.3-.1-.7-.3-1.2-.4-.5-.1-.9-.2-1.4-.2-.5.1-1 0-1.4 0zm26.1 22.2v-12.3c0-1.5-.2-2.8-.5-4.1-.3-1.2-.8-2.3-1.5-3.2s-1.7-1.6-2.9-2.1-2.8-.7-4.6-.7c-1.8 0-3.6.1-5.2.4s-3 .5-4.1.8v21.1h6.2v-16.8c.4-.1.8-.1 1.3-.1s1-.1 1.4-.1c1.4 0 2.4.4 2.9 1.2.5.8.8 2.2.8 4.2v11.6h6.2zm25-10v-1.2c0-3.7-.9-6.5-2.7-8.4s-4.2-2.8-7.3-2.8c-1.3 0-2.6.2-3.9.7-1.3.5-2.4 1.2-3.3 2.2-1 1-1.7 2.2-2.3 3.6-.6 1.5-.9 3.1-.9 5.1 0 1.6.2 3.1.7 4.5s1.2 2.6 2.1 3.6c1 1 2.2 1.8 3.6 2.4 1.5.6 3.2.9 5.1.9.8 0 1.5 0 2.3-.1s1.5-.2 2.2-.3c.7-.1 1.3-.3 1.8-.4s1-.3 1.3-.5l-.8-5c-.7.3-1.6.6-2.7.8-1.1.2-2.2.3-3.3.3-1.8 0-3.2-.4-4.2-1.1-1.1-.7-1.6-1.8-1.8-3h14c.1-.5.1-.9.1-1.3zm-14.1-3.1c.1-.5.2-1 .4-1.6.2-.5.4-1 .8-1.3.3-.4.7-.7 1.2-.9.5-.2 1.1-.4 1.8-.4s1.3.1 1.8.4c.5.2.9.6 1.2 1 .3.4.6.8.7 1.3.2.5.2 1 .3 1.5h-8.2zm18.7-14.2v18.3c0 1.4.1 2.7.4 3.9.3 1.2.7 2.1 1.4 3 .7.8 1.5 1.5 2.7 1.9 1.1.5 2.5.7 4.2.7 1.3 0 2.4-.1 3.4-.3s1.7-.5 2.5-.8l-.9-4.8c-.6.2-1.2.4-1.9.5-.7.1-1.4.2-2.1.2-1.4 0-2.3-.4-2.8-1.2s-.7-1.8-.7-3.1v-7.7h7.4v-5.1H275v-6.4l-6.2.9zm37.2 17.3v-1.2c0-3.7-.9-6.5-2.7-8.4s-4.2-2.8-7.3-2.8c-1.3 0-2.6.2-3.9.7-1.3.5-2.4 1.2-3.3 2.2-1 1-1.7 2.2-2.3 3.6-.6 1.5-.9 3.1-.9 5.1 0 1.6.2 3.1.7 4.5s1.2 2.6 2.1 3.6c1 1 2.2 1.8 3.6 2.4 1.5.6 3.2.9 5.1.9.8 0 1.5 0 2.3-.1s1.5-.2 2.2-.3c.7-.1 1.3-.3 1.8-.4s1-.3 1.3-.5l-.8-5c-.7.3-1.6.6-2.7.8-1.1.2-2.2.3-3.3.3-1.8 0-3.2-.4-4.2-1.1-1.1-.7-1.6-1.8-1.8-3h14c.1-.5.1-.9.1-1.3zm-14.1-3.1c.1-.5.2-1 .4-1.6.2-.5.4-1 .8-1.3.3-.4.7-.7 1.2-.9.5-.2 1.1-.4 1.8-.4s1.3.1 1.8.4c.5.2.9.6 1.2 1 .3.4.6.8.7 1.3.2.5.2 1 .3 1.5h-8.2zm27.6 8.3c-.5.2-1.3.3-2.4.3-1.1 0-2.2-.1-3.3-.4-1.1-.2-2.2-.6-3.2-1l-1 5c.5.2 1.4.5 2.7.8s2.9.5 4.8.5c3 0 5.2-.6 6.9-1.7 1.6-1.1 2.4-2.7 2.4-4.9 0-.9-.1-1.7-.3-2.4-.2-.7-.6-1.3-1.1-1.9-.5-.6-1.2-1.1-2.1-1.6-.9-.5-2-1-3.4-1.5-.7-.2-1.2-.5-1.6-.7s-.8-.4-1-.6c-.2-.2-.4-.4-.5-.6s-.1-.4-.1-.7c0-1.1 1-1.6 2.9-1.6 1 0 2 .1 2.8.3s1.6.4 2.3.7l1.1-4.8c-.7-.3-1.7-.5-2.9-.8-1.2-.2-2.5-.4-3.8-.4-2.7 0-4.7.6-6.3 1.8-1.5 1.2-2.3 2.8-2.3 4.9 0 1.1.2 1.9.5 2.7.3.7.7 1.4 1.3 1.9.6.5 1.2 1 2 1.4s1.7.8 2.6 1.1c1.2.5 2.2.9 2.8 1.3.6.4.9.8.9 1.3 0 .9-.2 1.4-.7 1.6z" class="st2"></path><path d="M138.3 264.5h4.3l-4.4-10.3-3.6-8.4h-3.8l-3.6 8.4-4.4 10.3h4.2l1.7-4.2h7.8l1.8 4.2zm-8.1-7.8l1-2.5 1.4-3.5 1.4 3.5 1 2.5h-4.8zm29.6-2.5c.1-.5.2-1.1.2-1.8v-.1c0-3.8-2.7-6.4-7.1-6.4h-7.6v18.5h4.1v-5.6h3.1c3.6.1 6.5-1.5 7.3-4.6zm-10.3 0v-4.6h3.2c2 0 3.3 1 3.3 2.8v.1c0 .7-.2 1.2-.6 1.7-.5.7-1.4 1.1-2.6 1.1h-3.2v-1.1zm28 0c.1-.5.2-1.1.2-1.8v-.1c0-3.8-2.7-6.4-7.1-6.4H163v18.5h4.1v-5.6h3.1c3.6.1 6.5-1.5 7.3-4.6zm-10.4 0v-4.6h3.2c2 0 3.3 1 3.3 2.8v.1c0 .7-.2 1.2-.6 1.7-.5.7-1.4 1.1-2.6 1.1h-3.2v-1.1zm27 10.3v-3.7h-9.3v-14.9h-4.1v18.6zm7.3 0v-18.6h-4.1v18.6zm18.3-5.6c-1.5 1.3-2.8 2.2-4.9 2.2-3.2 0-5.4-2.6-5.4-5.8v-.1c0-.3 0-.7.1-1 .4-2.7 2.5-4.8 5.3-4.8 1.9 0 3.3.8 4.7 2.1l2.6-3c-1.7-1.7-3.8-2.9-7.3-2.9-5.3 0-9.1 3.8-9.6 8.6 0 .3-.1.7-.1 1v.1c0 5.3 4 9.5 9.5 9.5 3.6 0 5.7-1.3 7.6-3.3l-2.5-2.6zm16-13.1h-3.8l-3.6 8.4-4.4 10.3h4.2l1.7-4.2h7.8l1.7 4.2h4.3l-4.4-10.3-3.5-8.4zm-4.4 10.9l1-2.5 1.4-3.5 1.4 3.5 1 2.5h-4.8zm17.1-2.5v10.3h4.1v-14.8h5.6v-3.8h-15.3v3.8h5.6zm17.1 0v-8.3h-4.1v18.6h4.1zm23.5 1v-1c-.5-4.8-4.4-8.6-9.8-8.6-5.3 0-9.3 3.8-9.8 8.6 0 .3-.1.7-.1 1v.1c0 5.3 4.1 9.5 9.8 9.5 5.7 0 9.9-4.3 9.9-9.6zm-4.3.1c0 3.2-2.3 5.8-5.6 5.8s-5.6-2.6-5.6-5.8v-.1c0-.3 0-.7.1-1 .4-2.7 2.5-4.8 5.5-4.8 2.9 0 5.1 2.1 5.5 4.8.1.3.1.7.1 1.1zm20.4-9.4v11.4l-2.5-3.1-6.2-8.3h-3.8v18.6h4v-11.8l1.2 1.5 7.8 10.3h3.5v-18.6zm-166.2 26.8h-7.2v18.5h7.2c5.8 0 9.8-4 9.8-9.3v-.1c0-5.1-4-9.1-9.8-9.1zm5.6 9.3c0 3.3-2.2 5.5-5.6 5.5h-3.2v-11.2h3.2c3.3.1 5.6 2.4 5.6 5.7zm11.9 1.7h8.8v-3.6h-8.8v-3.8h9.9v-3.6h-13.9v18.5h14.1v-3.6h-10.1zm21.5 2l-4.9-13h-4.5l7.5 18.7h3.6l7.5-18.7h-4.4zm16.1-2h8.7v-3.6H194v-3.8h9.9v-3.6h-14v18.5h14.2v-3.6H194zm17.8-11h-4.1v18.5H221v-3.7h-9.2zm20.3-.3c-5.7 0-9.9 4.3-9.9 9.6v.1c0 5.3 4.1 9.5 9.8 9.5 5.7 0 9.9-4.3 9.9-9.6v-.1c0-5.3-4.1-9.5-9.8-9.5zm5.5 9.6c0 3.2-2.3 5.8-5.6 5.8s-5.6-2.6-5.6-5.8v-.1c0-3.2 2.3-5.8 5.6-5.8s5.6 2.7 5.6 5.9zm15.5-9.3h-7.6v18.5h4.1v-5.6h3.1c4.2 0 7.5-2.2 7.5-6.5v-.1c0-3.7-2.7-6.3-7.1-6.3zm2.9 6.5c0 1.6-1.2 2.8-3.2 2.8h-3.2v-5.7h3.1c2.1.1 3.3 1 3.3 2.9zm11.2 4.5h8.8v-3.6h-8.8v-3.8h10v-3.6h-14v18.5h14.1v-3.6h-10.1zm29.2-4.8c0-1.8-.6-3.3-1.6-4.3-1.2-1.2-3-1.9-5.4-1.9h-8.5v18.5h4.1v-5.9h3.2l4 5.9h4.8l-4.5-6.6c2.3-.9 3.9-2.8 3.9-5.7zm-4.2.2c0 1.6-1.1 2.6-3.1 2.6H285v-5.3h4c2 0 3.2.9 3.2 2.7z" class="st1"></path></svg>
