<svg xmlns="http://www.w3.org/2000/svg" role="img" viewBox="-1.99 -4.74 246.48 239.48"><title>kubernetes-security-specialist-logo.svg</title><defs><style>.cls-1{fill:#427af4}.cls-2{fill:#fff}</style></defs><path d="M239.40475 140.47217c-1.40582-6.81427-3.09246-13.57044-4.65118-20.35334q-2.62409-11.41936-5.23523-22.84179-2.59305-11.26163-5.20834-22.51813c-1.74121-7.5614-3.45911-15.12823-5.20362-22.68884a15.98227 15.98227 0 0 0-5.72845-9.15045 27.62639 27.62639 0 0 0-5.56055-3.10926q-24.15812-11.56119-48.33514-23.0827c-10.49359-5.009-20.97614-10.04138-31.4856-15.017a15.35 15.35 0 0 0-12.27624-.51794c-2.559.9422-4.945 2.27826-7.40442 3.44671-4.16107 1.97693-8.34827 3.89942-12.494 5.90778q-5.52154 2.6748-11.07056 5.29065c-3.89874 1.82977-7.766 3.7265-11.64758 5.593-3.14477 1.5122-6.28577 3.03241-9.43658 4.532-4.406 2.09711-8.82477 4.16724-13.228 6.27-3.25421 1.55408-6.484 3.15924-9.73987 4.70984-3.24414 1.545-6.56335 2.94592-9.69366 4.71148a15.06024 15.06024 0 0 0-7.51748 10.02722C21.13089 61.739 18.842 71.81262 16.52682 81.88006Q9.93275 110.55393 3.32645 139.225a16.28845 16.28845 0 0 0 3.29211 14.7342q14.03073 17.34429 27.97784 34.75622 14.26713 17.73907 28.54169 35.47217a15.46263 15.46263 0 0 0 12.536 5.97162q22.69218.02179 45.38446.00519 22.775 0 45.55011-.00318a15.955 15.955 0 0 0 12.80921-5.99957c1.19928-1.4397 2.352-2.91821 3.5263-4.37878q12.74983-15.85834 25.49983-31.71646 6.81437-8.47549 13.62769-16.95185c4.82537-6.01806 9.66436-12.02563 14.44549-18.07867a14.74845 14.74845 0 0 0 2.88757-12.56372zM215.263 76.35431c1.16583 5.03668 2.36822 10.06549 3.473 15.11554q.94886 4.337 1.93317 8.66656c.59534 2.62238 1.24066 5.23975 1.86554 7.85822 1.17572 4.92645 2.26544 9.87341 3.39874 14.81006.95007 4.13867 1.92059 8.2727 2.86377 12.4129.31952 1.40283.67188 2.79675.8515 4.22113a7.33852 7.33852 0 0 0-3.33533-1.79157c-.51812-.10363-1.29522-.31085-1.81329-.41448a48.42223 48.42223 0 0 0-6.00976-.46625c-4.40375-.46631-8.03034-.829-11.24244-1.86511-1.29522-.51813-2.22778-2.07233-2.69409-2.74585l-2.53857-.72535a81.19509 81.19509 0 0 0-1.29524-29.27172 79.90643 79.90643 0 0 0-11.7605-27.14765c.67346-.56988 1.86512-1.65784 2.22773-2.02051a4.95661 4.95661 0 0 1 1.19158-3.57476 60.43964 60.43964 0 0 1 9.3255-6.57966 50.54343 50.54343 0 0 0 5.23267-3.0567c.41449-.31085.93256-.77716 1.39887-1.088a7.4635 7.4635 0 0 0 2.15606-2.73871 17.04647 17.04647 0 0 1 .49353 1.76038c.60761 2.77405 1.23987 5.54278 1.87641 8.31042.79248 3.44549 1.60382 6.88671 2.40115 10.33111zm-82.466-62.54474q21.96185 10.40991 43.87591 20.92053 12.496 5.96412 24.9906 11.93152.84275.40311 1.66242.84534a7.73718 7.73718 0 0 0-2.81317 1.39239c-.41443.36267-.98432.7771-1.39881 1.08795a54.40181 54.40181 0 0 0-4.14465 4.40375 60.78441 60.78441 0 0 1-8.44476 7.6676c-1.19159.72535-3.00489.46631-3.782.41449l-2.38318 1.70966a82.56748 82.56748 0 0 0-52.06744-25.17889c-.05182-.82892-.10358-2.33136-.1554-2.79761a4.966 4.966 0 0 1-2.07238-3.16034c-.259-3.36756.20727-6.99414.72534-11.39783a51.40933 51.40933 0 0 0 .88074-5.958v-1.76148a7.62668 7.62668 0 0 0-.53559-2.81262c1.93614.78021 3.77592 1.79937 5.66237 2.69354zM51.98471 41.32288c3.61609-1.72938 7.23914-3.44416 10.85535-5.17334q5.64624-2.70007 11.28589-5.414 5.49828-2.63067 11.00256-5.249 5.75848-2.75207 11.51343-5.51178c3.66516-1.75152 7.31671-3.53283 11.00494-5.23449 2.69647-1.244 5.30908-2.67957 8.07245-3.76551a7.67609 7.67609 0 0 0-.58685 2.9538v.15546c0 .51806-.05182 1.13977 0 1.606a51.42016 51.42016 0 0 0 .88073 5.958c.51813 4.35187.98438 8.03027.67353 11.39783a6.86316 6.86316 0 0 1-2.02051 3.26391l-.15546 2.64222a78.13842 78.13842 0 0 0-11.346 1.76153A80.46711 80.46711 0 0 0 62.1843 64.131c-.67353-.46625-1.91687-1.347-2.27955-1.606-1.13983.1554-2.22778.51807-3.73022-.36267a57.36049 57.36049 0 0 1-8.44476-7.61584 46.57671 46.57671 0 0 0-4.14466-4.40369c-.36267-.31085-.98437-.77716-1.39886-1.088a7.62207 7.62207 0 0 0-3.12756-1.49585c.05749-.02979.10882-.06507.16687-.0943 4.21533-2.1223 8.50079-4.10528 12.75915-6.14177zm-30.97095 61.91345Q24.00883 90.20571 27.02487 77.18c1.57392-6.81671 3.09332-13.64679 4.74683-20.44421.07409-.30457.17376-.59094.264-.8841a7.52023 7.52023 0 0 0 2.2757 2.99488c.05182 0 .05182.05182.10364.05182.41443.31085.93255.7771 1.29523 1.03613 1.81329 1.29523 3.41931 2.02057 5.18078 3.0567a64.22916 64.22916 0 0 1 9.32556 6.52789A6.61353 6.61353 0 0 1 51.46 73.14569l2.0205 1.81331a81.06587 81.06587 0 0 0-12.79669 56.57477l-2.64221.77716a9.08477 9.08477 0 0 1-2.694 2.74579c-3.21215 1.03619-6.83874 1.39887-11.24243 1.86511a48.436 48.436 0 0 0-6.00976.46631c-.46631.10358-1.13983.259-1.6579.36267h-.1554a7.42737 7.42737 0 0 0-3.46252 1.89466 19.2735 19.2735 0 0 1 .41394-2.5669c2.63967-11.26998 5.18734-22.56136 7.78023-33.84224zm35.47162 65.91028a82.647 82.647 0 0 0 23.521 20.98242l-1.13977 2.74585a6.0599 6.0599 0 0 1 .56988 3.523 63.33945 63.33945 0 0 1-5.69891 10.2063 53.00188 53.00188 0 0 0-3.36758 5.02534c-.259.4663-.56989 1.19159-.82892 1.70965a7.67415 7.67415 0 0 0-.6933 2.63489 19.54273 19.54273 0 0 1-1.47522-1.6499c-3.97968-5.03376-8.031-10.011-12.05121-15.0127q-5.82276-7.24412-11.64606-14.48767-6.47433-8.04539-12.95453-16.086-6.18474-7.69446-12.3515-15.40338c-.92437-1.15472-1.91986-2.25793-2.78589-3.45654a7.47652 7.47652 0 0 0 3.49628.04785h.10364a.18092.18092 0 0 0 .10364-.05182c.51806-.10358 1.19159-.259 1.60608-.36267a49.02742 49.02742 0 0 0 5.64709-2.1759c4.14465-1.50245 7.564-2.74585 10.93158-3.21216 1.3988-.10364 2.84943.88074 3.62659 1.29523l2.74585-.46631a80.64786 80.64786 0 0 0 12.27856 23.72827m65.17835 51.85052q-15.48816 0-30.97626.00116-5.176.00165-10.352.0257c-.12708.00055-.24548-.01611-.37128-.01813a7.56336 7.56336 0 0 0 1.23383-1.81232c.259-.4663.56988-1.13977.7771-1.60608a52.388 52.388 0 0 0 1.81329-5.75073c1.6579-4.14465 2.59045-8.5484 4.87-11.24243a5.06922 5.06922 0 0 1 2.694-1.29523l1.3988-2.59039a80.59625 80.59625 0 0 0 47.09394 3.36757 74.131 74.131 0 0 0 10.77613-3.26391c.41448.72528 1.13983 2.07233 1.347 2.435a4.96252 4.96252 0 0 1 3.2121 1.96868 55.78238 55.78238 0 0 1 4.30011 10.56891 52.38662 52.38662 0 0 0 1.81329 5.75074c.20722.4663.51807 1.13983.77716 1.60608a7.64068 7.64068 0 0 0 1.23877 1.84265c-13.88192.03367-27.76394.01273-41.64595.01273zm65.11981-51.33246a82.79132 82.79132 0 0 0 12.434-24.1427c.82892.10364 2.22778.36268 2.694.46625a4.85783 4.85783 0 0 1 3.523-1.29516c3.36749.46624 6.78686 1.70965 10.93158 3.21209a51.26675 51.26675 0 0 0 5.64709 2.176c.46625.10363 1.088.259 1.60608.36267a.18067.18067 0 0 1 .10358.05182h.10364a7.641 7.641 0 0 0 3.25628-.02265c-1.01727 1.36426-2.18591 2.62226-3.2232 3.9715-1.44037 1.8736-2.91589 3.72058-4.39636 5.56287-1.67279 2.08154-3.37818 4.137-5.05194 6.21777-2.18207 2.71283-4.33857 5.44635-6.52161 8.15839-2.15057 2.67163-4.33069 5.31958-6.47864 7.99328-1.506 1.87457-2.96454 3.78729-4.47247 5.66034-1.46912 1.82483-2.99115 3.60706-4.4585 5.43329-1.4862 1.84961-2.916 3.74463-4.40332 5.59338-1.68542 2.09516-3.42309 4.14826-5.10876 6.24323-1.4679 1.82416-2.85926 3.71069-4.35 5.51544-1.49658 1.81165-2.8382 3.76971-4.45575 5.45526-.02759.02875-.05756.053-.08527.08148a7.59352 7.59352 0 0 0-.71185-2.55377c-.259-.51806-.56988-1.24335-.82892-1.70965a52.06088 52.06088 0 0 0-3.36755-4.97358c-2.38318-3.73022-4.35187-6.78692-5.54352-9.94726-.51806-1.606.10364-2.64221.46631-3.67841a19.27116 19.27116 0 0 1-1.03619-2.53857 82.53323 82.53323 0 0 0 23.62463-21.13782" class="cls-1"/><path d="M64.084 73.788h114.393v27.355H64.084zm.00024 31.81322v16.16423h3.21212v-4.97361a10.03021 10.03021 0 0 1 1.088 1.03617 12.60786 12.60786 0 0 1 1.03617 1.29521c.31085.46628.6217.88074.93255 1.347s.5699.88075.77713 1.2434h3.6784c-.25905-.46627-.56989-.98435-.88074-1.55425-.36266-.56989-.77713-1.13978-1.1916-1.70968a20.88481 20.88481 0 0 0-1.347-1.65787 17.48825 17.48825 0 0 0-1.347-1.39882c.88075-.82894 1.65787-1.65787 2.38319-2.435s1.45064-1.60606 2.22776-2.4868h-3.782a9.18153 9.18153 0 0 1-.72532.82894c-.259.31085-.56989.67351-.88074 1.03617s-.6217.72531-.98436 1.088c-.31085.36265-.67351.72531-.98436 1.088v-9.42913l-3.21212.51808zm12.12317 4.87V116.74a8.83053 8.83053 0 0 0 .259 2.12415 4.452 4.452 0 0 0 .77712 1.65787A3.64251 3.64251 0 0 0 78.746 121.61a6.40882 6.40882 0 0 0 2.38319.36266 14.95919 14.95919 0 0 0 2.694-.20724c.82893-.15541 1.55425-.259 2.12415-.41446v-10.93155h-3.21207v8.70381a2.73691 2.73691 0 0 1-.67351.05181c-.259 0-.51809.05182-.72532.05182a1.56769 1.56769 0 0 1-1.50244-.67352 4.70262 4.70262 0 0 1-.41447-2.22776v-5.90615h-3.21212zm12.79667-4.87v15.80157c.31086.10361.6217.15543.98436.259a8.14215 8.14215 0 0 0 1.19159.20723l1.2434.15543a9.576 9.576 0 0 0 1.1916.05181 7.35379 7.35379 0 0 0 2.4868-.41447 5.01107 5.01107 0 0 0 1.86511-1.19159 4.9 4.9 0 0 0 1.13978-1.86511 7.27054 7.27054 0 0 0 .41447-2.435 8.94591 8.94591 0 0 0-.31085-2.435 5.25965 5.25965 0 0 0-.93255-1.8651 3.917 3.917 0 0 0-1.55426-1.1916 5.54358 5.54358 0 0 0-2.12415-.41447 8.59557 8.59557 0 0 0-1.24339.10362 9.66558 9.66558 0 0 0-1.13979.36266v-5.64712l-3.21212.51809zm3.93744 7.46041a3.18847 3.18847 0 0 1 .98436-.10361c1.50244 0 2.27957 1.03617 2.27957 3.1085a3.82185 3.82185 0 0 1-.67351 2.38319 2.23921 2.23921 0 0 1-1.96872.88074 3.43048 3.43048 0 0 1-.77713-.05181c-.259 0-.46627-.05181-.6217-.05181v-5.80254a1.36142 1.36142 0 0 1 .77713-.36266zm19.0655 3.523v-.6217a6.10323 6.10323 0 0 0-1.39882-4.35191 4.9202 4.9202 0 0 0-3.782-1.45063 5.55551 5.55551 0 0 0-2.02052.36265 4.32 4.32 0 0 0-1.70968 1.13979 5.75618 5.75618 0 0 0-1.1916 1.8651 7.69869 7.69869 0 0 0-.10361 4.97361 5.53273 5.53273 0 0 0 1.088 1.86511 5.35172 5.35172 0 0 0 1.8651 1.2434 7.06566 7.06566 0 0 0 2.64223.46627 9.171 9.171 0 0 0 1.1916-.05181c.41447-.05181.77713-.10362 1.13978-.15543s.67351-.15542.93256-.20723a3.05129 3.05129 0 0 0 .67351-.259l-.41447-2.59042a6.49862 6.49862 0 0 1-1.39883.41447 9.53979 9.53979 0 0 1-1.70968.15542 3.74781 3.74781 0 0 1-2.176-.56989 2.15407 2.15407 0 0 1-.93255-1.55425h7.25318c0-.25905.05181-.46628.05181-.67351zm-7.305-1.60607a6.44516 6.44516 0 0 1 .20723-.82894 1.48767 1.48767 0 0 1 .41447-.67351 1.41447 1.41447 0 0 1 .6217-.46627 2.47475 2.47475 0 0 1 .93255-.20723 1.77427 1.77427 0 0 1 .93256.20723 1.52316 1.52316 0 0 1 .6217.51808 1.70608 1.70608 0 0 1 .36265.67352 4.13006 4.13006 0 0 1 .15543.77712zm15.07625-4.71457c-.259 0-.46627-.05181-.6217-.05181a12.88372 12.88372 0 0 0-2.59042.259 13.80307 13.80307 0 0 0-2.02052.5699v10.67254h3.21212v-8.652a1.9323 1.9323 0 0 1 .6217-.10361c.259 0 .51808-.05181.72531-.05181a8.59724 8.59724 0 0 1 1.2434.10361c.36266.10362.72532.15543.98436.20723l.51808-2.64223a4.31811 4.31811 0 0 0-.6217-.20723 3.49821 3.49821 0 0 0-.72531-.10362 3.38479 3.38479 0 0 1-.72531.00004zm13.522 11.50147V115.393a9.17277 9.17277 0 0 0-.259-2.12415 4.45192 4.45192 0 0 0-.77713-1.65786 3.64232 3.64232 0 0 0-1.50244-1.088 6.40885 6.40885 0 0 0-2.38319-.36266 14.95922 14.95922 0 0 0-2.694.20723c-.82893.15542-1.55425.259-2.12415.41447v10.93158h3.21212v-8.70382a2.73691 2.73691 0 0 1 .67351-.05181c.259 0 .51808-.05181.72531-.05181a1.65382 1.65382 0 0 1 1.50245.6217 4.32568 4.32568 0 0 1 .41446 2.176v6.00978h3.21212zm12.95211-5.18084v-.6217a6.10314 6.10314 0 0 0-1.39884-4.3519 4.92016 4.92016 0 0 0-3.782-1.45064 5.55537 5.55537 0 0 0-2.02053.36266 4.3199 4.3199 0 0 0-1.70968 1.13978 5.75615 5.75615 0 0 0-1.19159 1.8651 7.69864 7.69864 0 0 0-.10362 4.97362 5.53278 5.53278 0 0 0 1.088 1.8651 5.87983 5.87983 0 0 0 1.86511 1.2434 7.06563 7.06563 0 0 0 2.64223.46627 9.17082 9.17082 0 0 0 1.19159-.05181c.41446-.05181.77712-.10361 1.13979-.15543s.6735-.15542.93254-.20723a2.03139 2.03139 0 0 0 .67351-.259l-.41446-2.59042a6.49872 6.49872 0 0 1-1.39884.41447 9.53894 9.53894 0 0 1-1.70967.15543 3.74771 3.74771 0 0 1-2.176-.5699 2.154 2.154 0 0 1-.93255-1.55425h7.25317a3.186 3.186 0 0 0 .05185-.67357zm-7.305-1.60607a6.443 6.443 0 0 1 .20723-.82893 1.48748 1.48748 0 0 1 .41447-.67351 1.41432 1.41432 0 0 1 .62169-.46628 2.4748 2.4748 0 0 1 .93256-.20723 1.77423 1.77423 0 0 1 .93255.20723 1.52328 1.52328 0 0 1 .62171.51809 1.70619 1.70619 0 0 1 .36266.67351 4.12765 4.12765 0 0 1 .15542.77712zm9.68818-7.35679v9.48094a8.34758 8.34758 0 0 0 .20723 2.02053 3.91329 3.91329 0 0 0 .72531 1.55425 3.11632 3.11632 0 0 0 1.39883.98436 5.3061 5.3061 0 0 0 2.176.36265 8.90684 8.90684 0 0 0 1.76149-.15542 7.61767 7.61767 0 0 0 1.29521-.41447l-.46628-2.48681a5.46473 5.46473 0 0 1-.98435.259 7.72774 7.72774 0 0 1-1.088.10362 1.55615 1.55615 0 0 1-1.45063-.6217 2.95332 2.95332 0 0 1-.36267-1.60606v-3.98925h3.83382v-2.64223h-3.83383v-3.31574l-3.21213.46628zm19.27273 8.96286v-.6217a6.10314 6.10314 0 0 0-1.39883-4.3519 4.92016 4.92016 0 0 0-3.782-1.45064 5.55535 5.55535 0 0 0-2.02052.36266 4.3199 4.3199 0 0 0-1.70968 1.13978 5.7558 5.7558 0 0 0-1.19158 1.8651 7.69855 7.69855 0 0 0-.10361 4.97362 5.53295 5.53295 0 0 0 1.088 1.8651 5.87971 5.87971 0 0 0 1.86511 1.2434 7.06563 7.06563 0 0 0 2.64223.46627 9.17067 9.17067 0 0 0 1.19158-.05181c.41447-.05181.77713-.10361 1.1398-.15543s.6735-.15542.93254-.20723a2.03132 2.03132 0 0 0 .6735-.259l-.41446-2.59042a6.49844 6.49844 0 0 1-1.39883.41447 9.539 9.539 0 0 1-1.70967.15543 3.74774 3.74774 0 0 1-2.176-.5699 2.154 2.154 0 0 1-.93255-1.55425h7.25318a3.18657 3.18657 0 0 0 .05181-.67351zm-7.305-1.60607a6.4463 6.4463 0 0 1 .20723-.82893 1.48772 1.48772 0 0 1 .41446-.67351 1.41438 1.41438 0 0 1 .62171-.46628 2.47475 2.47475 0 0 1 .93255-.20723 1.77422 1.77422 0 0 1 .93254.20723 1.52328 1.52328 0 0 1 .62171.51809 1.70619 1.70619 0 0 1 .36266.67351 4.12765 4.12765 0 0 1 .15542.77712h-4.24828zm14.29913 4.3001a3.61452 3.61452 0 0 1-1.2434.15543 6.436 6.436 0 0 1-1.70967-.20723 8.81565 8.81565 0 0 1-1.65788-.51808l-.51808 2.59042a9.97006 9.97006 0 0 0 1.39883.41447 11.10508 11.10508 0 0 0 2.4868.259 6.39067 6.39067 0 0 0 3.57478-.88074 2.85966 2.85966 0 0 0 1.24339-2.53861 4.53434 4.53434 0 0 0-.15541-1.2434 2.71652 2.71652 0 0 0-.5699-.98436 3.75042 3.75042 0 0 0-1.088-.82894 11.73628 11.73628 0 0 0-1.76148-.77712 4.331 4.331 0 0 1-.82894-.36266 2.265 2.265 0 0 1-.51809-.31085 1.37337 1.37337 0 0 1-.259-.31086.76815.76815 0 0 1-.05181-.36265c0-.5699.51809-.82894 1.50244-.82894a6.22792 6.22792 0 0 1 1.45063.15542 8.00883 8.00883 0 0 1 1.19159.36266l.56989-2.4868a11.59653 11.59653 0 0 0-1.50244-.41447 12.05967 12.05967 0 0 0-1.96871-.20723 5.19975 5.19975 0 0 0-3.26392.93255 3.075 3.075 0 0 0-1.19159 2.53861 3.74278 3.74278 0 0 0 .259 1.39883 2.5739 2.5739 0 0 0 .6735.98435 5.24887 5.24887 0 0 0 1.03617.72532 10.51216 10.51216 0 0 0 1.347.56989 9.969 9.969 0 0 1 1.45063.67351c.31086.20723.46628.41447.46628.67351 0 .46628-.10363.72532-.36267.82894z" class="cls-2"/><path d="M76.41465 94.65225a6.8215 6.8215 0 0 0 5.43988-2.38319l-1.8651-1.86506a4.82362 4.82362 0 0 1-3.47116 1.55426 3.932 3.932 0 0 1-3.83383-4.14468v-.05181a3.93368 3.93368 0 0 1 3.83383-4.14467 4.72225 4.72225 0 0 1 3.36754 1.50244l1.86511-2.12415a6.9587 6.9587 0 0 0-5.23265-2.02052 6.71541 6.71541 0 0 0-6.89052 6.8387v.05182a6.68023 6.68023 0 0 0 6.7869 6.7869zm17.8739-2.84946h-7.20136v-2.74585H93.356v-2.59042h-6.26881v-2.694h7.09775v-2.59046h-9.999V94.445h10.10261zm5.5435-1.60607h2.33138l2.84946 4.24829h3.41936l-3.26393-4.71457a4.08546 4.08546 0 0 0 2.84946-4.09286v-.05181a4.1457 4.1457 0 0 0-1.13978-3.00489 5.27661 5.27661 0 0 0-3.88563-1.347h-6.06159V94.445h2.90128v-4.24827zm0-6.42424h2.90128c1.39882 0 2.27956.6217 2.27956 1.91691v.05181c0 1.13979-.82894 1.86511-2.22776 1.86511h-2.95308v-3.83382zM113.6649 94.445h2.90127V83.87611h4.04106v-2.694h-10.98338v2.694h4.041zm9.32551-13.263h2.90127v13.263h-2.90127zm9.11828 8.08212h6.37244V86.622h-6.37244v-2.79771h7.20137v-2.64223h-10.10264V94.445h2.90127zm9.68817-8.08212h2.90127v13.263h-2.90127zm16.31965 10.62073h-7.20137v-2.74579h6.217v-2.59042h-6.217v-2.694h7.09776v-2.59046h-9.999V94.445h10.10264zm14.81721-3.98925c0-3.782-2.90128-6.63148-7.046-6.63148h-5.18084v13.263h5.18084c4.14472 0 7.046-2.90126 7.046-6.63146zm-9.32552-4.04106h2.27957a3.80749 3.80749 0 0 1 3.98925 3.98925v.05181a3.76658 3.76658 0 0 1-3.98925 3.93744h-2.27957v-7.97843z" class="cls-1"/><path d="M64.084 128.192h114.393v37.343H64.084z" class="cls-2"/><path d="M78.85251 143.44011l1.44824-1.73437a5.108 5.108 0 0 0 3.32617 1.35254c1.002 0 1.60742-.398 1.60742-1.0503v-.03173c0-.62061-.38183-.939-2.24414-1.41651-2.24414-.57275-3.69238-1.19385-3.69238-3.40576v-.03174c0-2.02148 1.623-3.3584 3.89941-3.3584a6.44831 6.44831 0 0 1 4.1377 1.41651l-1.27344 1.84619a5.227 5.227 0 0 0-2.89648-1.09815c-.93848 0-1.43262.42969-1.43262.97071v.03222c0 .73194.47754.97071 2.40332 1.46387 2.25977.58887 3.5332 1.40039 3.5332 3.34229v.03173c0 2.21241-1.68652 3.45362-4.08984 3.45362a7.087 7.087 0 0 1-4.72656-1.78272zm11.34668-9.51711h8.40332v2.18067h-5.96875v2.25976h5.252v2.18018h-5.252v2.33984h6.04785v2.18018h-8.48242zm10.56836 5.60207v-.03173a5.66177 5.66177 0 0 1 5.80859-5.76123 5.74768 5.74768 0 0 1 4.39258 1.71875l-1.55957 1.79834a4.11021 4.11021 0 0 0-2.84863-1.25684 3.30045 3.30045 0 0 0-3.23047 3.46924v.03174a3.30866 3.30866 0 0 0 3.23047 3.50146 4.0184 4.0184 0 0 0 2.92773-1.30517l1.56055 1.57568a5.69665 5.69665 0 0 1-4.56836 1.98926 5.62285 5.62285 0 0 1-5.71289-5.7295zm12.46093.76416V133.923h2.4502v6.30225c0 1.81445.90723 2.75342 2.40332 2.75342s2.40332-.90723 2.40332-2.67383V133.923h2.45117v6.28662c0 3.374-1.89453 5.0293-4.88574 5.0293-2.99219.00002-4.82227-1.67137-4.82227-4.94969zM125.833 133.923h5.09277a4.44053 4.44053 0 0 1 3.24707 1.13037 3.498 3.498 0 0 1 .9541 2.54639v.03174a3.46 3.46 0 0 1-2.38672 3.45361l2.72168 3.97852h-2.86523l-2.38672-3.56494h-1.92578v3.56494H125.833zm4.93359 5.41114c1.19336 0 1.87793-.63623 1.87793-1.57569v-.03174c0-1.05029-.73242-1.5913-1.92578-1.5913h-2.43457v3.19873zm7.08201-5.41114h2.45117v11.14063h-2.45117zm8.22754 2.26028h-3.38965V133.923h9.23051v2.26026h-3.38965v8.88037h-2.45117zm11.25098 4.48779l-4.28028-6.748h2.86426l2.6582 4.47217 2.70508-4.47217h2.78516l-4.28125 6.7002v4.44043h-2.45117zm-85.58106 17.76904l1.44824-1.73437a5.108 5.108 0 0 0 3.32618 1.35254c1.00195 0 1.60742-.398 1.60742-1.0503v-.03173c0-.62061-.38184-.939-2.24414-1.41651-2.24414-.57275-3.69238-1.19385-3.69238-3.40576v-.03174c0-2.02148 1.623-3.3584 3.89941-3.3584a6.44828 6.44828 0 0 1 4.13769 1.41651l-1.27343 1.84619a5.227 5.227 0 0 0-2.89649-1.09815c-.93847 0-1.43261.42969-1.43261.97071v.03222c0 .73194.47753.97071 2.40332 1.46387 2.25976.58887 3.5332 1.40039 3.5332 3.34229v.03173c0 2.21241-1.68652 3.45362-4.08984 3.45362a7.087 7.087 0 0 1-4.72657-1.78272zm11.34668-9.51711h4.55176c2.65723 0 4.26465 1.57569 4.26465 3.85157v.03173c0 2.57813-2.00488 3.915-4.50391 3.915h-1.86133v3.34229h-2.45117zm4.39258 5.61817a1.72468 1.72468 0 0 0 1.94141-1.687v-.03174c0-1.09815-.76368-1.687-1.98926-1.687h-1.89356v3.40576zM94.122 148.923h8.40332v2.18067h-5.96871v2.25976h5.25195v2.18018h-5.25195v2.33984h6.04785v2.18018H94.122zm10.56742 5.60207v-.03173a5.66177 5.66177 0 0 1 5.8086-5.76123 5.74768 5.74768 0 0 1 4.39257 1.71875l-1.55959 1.79834a4.11017 4.11017 0 0 0-2.84863-1.25684 3.30045 3.30045 0 0 0-3.23047 3.46924v.03174a3.30866 3.30866 0 0 0 3.23047 3.50146 4.01841 4.01841 0 0 0 2.92774-1.30517l1.56054 1.57568a5.69663 5.69663 0 0 1-4.56836 1.98926 5.62285 5.62285 0 0 1-5.71287-5.7295zm12.74805-5.60207h2.45117v11.14063h-2.45117zm9.45312-.07957h2.25977l4.77441 11.22022h-2.56152l-1.01855-2.49854h-4.71094l-1.01856 2.49854h-2.499zm2.57813 6.55713l-1.47949-3.61279-1.48047 3.61279zm6.57328-6.47756h2.45117v8.9126h5.55371v2.228H136.042zm10.36031 0h2.45117v11.14063h-2.45117zm4.87012 9.51711l1.44824-1.73437a5.108 5.108 0 0 0 3.32617 1.35254c1.002 0 1.60743-.398 1.60743-1.0503v-.03173c0-.62061-.38184-.939-2.24414-1.41651-2.24415-.57275-3.69239-1.19385-3.69239-3.40576v-.03174c0-2.02148 1.62305-3.3584 3.89942-3.3584a6.4483 6.4483 0 0 1 4.13769 1.41651l-1.27344 1.84619a5.227 5.227 0 0 0-2.89648-1.09815c-.93848 0-1.43262.42969-1.43262.97071v.03222c0 .73194.47754.97071 2.40332 1.46387 2.25977.58887 3.53321 1.40039 3.53321 3.34229v.03173c0 2.21241-1.68653 3.45362-4.08985 3.45362a7.087 7.087 0 0 1-4.72656-1.78272zm13.70215-7.25683h-3.38965V148.923h9.23047v2.26026h-3.38965v8.88037h-2.45117z" class="cls-1"/></svg>